<?xml version="1.0" encoding="utf-8"?>
<svg version="1.1" x="0px" y="0px" viewBox="0 0 595 842" style="enable-background:new 0 0 595 842;" xmlns="http://www.w3.org/2000/svg">
  <style type="text/css">
	.st0{display:none;}
	.st1{display:inline;}
	.st2{fill:#005683;}
	.st3{fill:#00709C;}
	.st4{display:inline;fill:#FFFFFF;}
	.st5{display:inline;fill:#FFD200;}
	.st6{display:inline;fill:#FF8800;}
	.st7{stroke:#000000;stroke-width:11.25;stroke-linecap:round;stroke-linejoin:round;stroke-miterlimit:10;}
	.st8{clip-path:url(#SVGID_2_);fill:#00709C;}
	.st9{clip-path:url(#SVGID_2_);fill:#FFFFFF;}
	.st10{fill:#FF8800;stroke:#000000;stroke-width:3.7249999;stroke-linecap:round;stroke-linejoin:round;stroke-miterlimit:10;}
	.st11{fill:#FFD200;stroke:#000000;stroke-width:3.7249999;stroke-linecap:round;stroke-linejoin:round;stroke-miterlimit:10;}
</style>
  <path class="st1" d="M 369.521 355.308 C 379.779 384.295 382.232 449.306 351.278 472.953 C 338.777 481.247 329.927 485.762 317.594 487.1 C 313.643 487.71 310.188 487.901 307.409 487.901 C 307.041 487.901 306.674 487.897 306.309 487.891 C 302.258 492.818 296.578 495.492 290.004 495.492 C 285.643 495.492 278.654 494.076 276.051 485.583 C 264.036 484.365 252.695 480.176 242.885 473.409 C 242.578 474.425 242.137 475.417 241.526 476.353 C 239.602 479.297 236.424 480.918 232.579 480.918 C 231.328 480.918 229.976 480.746 228.56 480.407 C 214.185 476.956 198.151 454.939 193.427 444.684 C 192.106 441.816 190.192 438.374 191.103 435.257 C 191.452 434.062 194.603 433.802 194.603 433.802 C 192.472 429.608 192.353 424.959 194.37 424.382 C 197.035 423.619 200.644 426.94 200.714 427.32 C 200.057 421.736 201.034 420.775 202.599 420.205 C 204.589 419.48 209.225 424.112 210.624 425.696 C 210.624 425.696 211.461 423.856 212.473 424.033 C 212.041 420.851 211.824 417.638 211.824 414.409 C 211.824 401.624 215.209 389.191 221.645 378.236 C 221.389 377.541 221.19 376.809 221.045 376.043 C 220.329 372.227 221.05 367.643 224.548 364.569 C 227.356 362.101 232.56 350.79 240.838 337.86 C 254.372 316.882 279.365 304.678 307.592 305.543 C 314.495 305.752 321.046 306.964 327.201 309.162 C 331.337 297.705 342.782 290.192 356.029 288.31 C 360.163 287.723 374.722 286.958 379.78 289.871 C 376.103 290.111 372.927 290.958 372.335 293.297 C 376.296 292.377 385.706 292.852 389.239 295.725 C 384.089 296.021 380.99 298.543 381.069 301.409 C 385.983 300.066 393.24 302.645 394.55 306.969 C 389.221 306.606 386.794 308.838 385.926 312.841 C 390.522 311.786 396.398 317.143 396.635 320.422 C 392.18 319.518 387.57 320.897 385.879 324.962 C 390.255 325.019 393.567 328.21 393.663 334.938 C 389.22 331.124 382.176 333.735 380.855 336.467 C 378.149 342.061 372.755 345.806 366.486 347.731 C 366.733 348.302 366.975 348.859 367.215 349.402 C 368.04 351.326 368.809 353.296 369.521 355.308 Z" style=""/>
  <defs>
    <path id="SVGID_1_" d="M282.4335938,482.1191406c-36.8681641,0-66.8623047-29.9941406-66.8623047-66.8618164 c0-36.8681641,29.9941406-66.8623047,66.8623047-66.8623047s66.8623047,29.9941406,66.8623047,66.8623047 C349.2958984,452.125,319.3017578,482.1191406,282.4335938,482.1191406z"/>
  </defs>
  <g transform="matrix(1, 0, 0, 1, 4.631862, -4.845204)">
    <title>ear 1</title>
    <path d="M 247.085 352.106 C 246.624 344.559 245.71 339.451 243.494 335.271 C 240.322 329.287 233.164 326.153 225.913 326.153 C 213.994 326.153 204.331 335.876 204.331 347.87 C 204.331 359.864 214.113 367.9 225.913 369.587 C 228.841 370.005 239.151 370.55 242.733 368.475 C 240.129 368.304 237.88 367.7 237.461 366.033 C 240.266 366.689 246.929 366.35 249.431 364.303 C 245.784 364.092 243.59 362.295 243.646 360.253 C 247.126 361.21 252.265 359.372 253.192 356.291 C 249.419 356.549 247.7 354.959 247.085 352.106 Z" style="" transform="matrix(-0.86662, 0.498968, -0.498968, -0.86662, 600.684588, 535.561937)"/>
    <path d="M 223.986 319.845 C 223.986 327.946 218.095 332.689 209.994 332.689 C 201.893 332.689 196.991 324.67 195.326 318.021 C 193.661 311.372 197.16 303.601 209.994 303.353 C 222.828 303.105 223.986 311.744 223.986 319.845 Z" style="fill: rgb(255, 255, 255);" transform="matrix(1.135571, 0, 0, 1.168268, -7.189715, -24.715868)"/>
  </g>
  <path d="M 282.434 482.119 C 245.565 482.119 215.571 452.125 215.571 415.257 C 215.571 378.389 245.565 348.395 282.434 348.395 C 319.302 348.395 349.296 378.389 349.296 415.257 C 349.296 452.125 319.302 482.119 282.434 482.119 Z" style="overflow: visible; fill: rgb(131, 55, 0);">
    <title>ball</title>
  </path>
  <clipPath id="SVGID_2_">
    <path d="M 282.434 482.119 C 245.565 482.119 215.571 452.125 215.571 415.257 C 215.571 378.389 245.565 348.395 282.434 348.395 C 319.302 348.395 349.296 378.389 349.296 415.257 C 349.296 452.125 319.302 482.119 282.434 482.119 Z" style="overflow: visible;"/>
  </clipPath>
  <path class="st8" d="M 261.25 358.861 C 253.795 358.861 246.721 360.478 240.339 363.358 C 225.241 375.628 215.571 394.331 215.571 415.257 C 215.571 424.195 217.347 432.723 220.544 440.523 C 229.841 452.874 244.612 460.861 261.25 460.861 C 289.385 460.861 312.193 438.028 312.193 409.861 C 312.193 381.695 289.385 358.861 261.25 358.861 Z" style="fill: rgb(122, 158, 123); stroke: rgb(94, 130, 95);">
    <title>belly highlight</title>
  </path>
  <path class="st9" d="M 256.787 449.002 C 253.962 449.186 251.663 449.023 248.854 448.44 C 248.007 439.996 247.461 429.447 251.716 411.059 C 259.444 431.075 267.955 445.751 268.016 445.832 C 266.569 446.522 262.166 448.623 256.787 449.002 M 243.828 446.87 C 221.717 436.821 217.659 413.002 225.078 394.666 C 225.36 412.811 230.441 426.96 243.828 446.87 M 273.757 442.391 C 277.264 427.274 283.095 412.824 286.525 397.685 C 287.187 394.759 287.761 390.205 286.729 385.127 C 296.948 401.091 295.774 425.885 273.757 442.391 M 228.187 388.583 C 238.168 373.221 257.255 360.725 278.206 376.069 C 278.066 376.063 264.775 376.673 274.435 390.962 C 279.655 398.684 279.988 404.878 275.858 417.476 C 274.367 423.687 273.917 425.562 272.586 431.957 C 266.211 416.724 261.01 403.753 256.902 387.168 C 260.513 386.638 264.605 386.038 262.503 383.713 C 262.238 383.42 243.21 385.308 243.029 385.339 C 241.569 385.588 241.312 387.307 241.31 387.324 C 241.158 388.681 241.405 388.667 245.526 388.419 C 246.613 394.274 247.108 396.948 249.796 405.494 C 247.855 413.561 245.847 421.901 245.572 434.819 C 236.903 417.562 233.433 405.577 232.771 390.594 C 234.001 389.845 235.645 390.14 236.733 389.025 C 237.474 388.266 237.835 386.552 236.91 386.352 C 233.632 385.645 231.129 387.968 228.187 388.583 M 258.312 365.877 C 225.512 368.584 204.213 418.011 233.222 443.877 C 262.623 470.091 298.948 436.221 297.693 404.793 C 296.719 380.429 276.544 365.001 258.312 365.877" style="">
    <title>W</title>
  </path>
  <path d="M 282.434 482.119 C 245.565 482.119 215.571 452.125 215.571 415.257 C 215.571 378.389 245.565 348.395 282.434 348.395 C 319.302 348.395 349.296 378.389 349.296 415.257 C 349.296 452.125 319.302 482.119 282.434 482.119 Z" style="overflow: visible; fill: none; stroke: rgb(0, 0, 0); stroke-width: 3.725; stroke-miterlimit: 10;">
    <title>belly outline</title>
  </path>
  <path class="st11" d="M 307.55 353.308 C 313.413 353.367 319.095 354.409 324.012 356.349 C 318.95 354.352 313.08 353.297 307.034 353.297 C 296.547 353.297 286.438 356.416 279.528 361.713 C 278.992 362.124 278.476 362.547 277.98 362.984 C 277.044 363.808 280.013 366.024 280.013 366.024 C 280.013 366.024 272.4 368.482 272.862 370.661 C 273.096 371.766 277.914 372.342 277.914 372.342 C 277.914 372.342 274.1 375.635 275.043 376.505 C 275.922 377.315 282.957 377.038 282.957 377.038 C 282.957 377.038 280.997 379.406 282.539 379.568 C 282.967 379.613 283.431 379.635 283.919 379.635 C 287.05 379.635 291.108 378.735 295.404 377.781 C 300.648 376.617 306.592 375.297 312.122 375.297 C 314.189 375.297 316.044 375.474 317.792 375.836 C 329.354 378.228 337.203 385.325 349.083 396.069 L 350.559 397.402 L 349.083 396.069 C 347.804 394.911 346.578 393.805 345.382 392.734 C 347.909 399.776 349.296 407.357 349.296 415.257 C 349.296 421.786 348.338 428.092 346.586 434.061 C 348.782 435.132 350.584 436.483 351.798 438.052 C 348.667 434.003 341.652 431.386 333.926 431.386 C 332.811 431.386 331.689 431.442 330.592 431.552 C 324.33 432.187 312.855 435.183 306.347 448.114 L 305.215 450.363 C 305.356 450.762 305.48 451.144 305.578 451.497 C 305.795 452.241 305.996 452.982 306.192 453.762 L 306.229 453.913 L 306.251 454.006 C 306.436 454.752 306.59 455.427 306.724 456.07 C 308.342 463.855 307.487 469.157 305.58 475.193 C 305.573 475.215 305.568 475.239 305.561 475.28 C 305.555 475.311 305.418 476.063 305.078 477.169 C 305.007 477.399 304.927 477.647 304.833 477.915 L 304.814 477.969 C 304.692 478.317 304.539 478.71 304.347 479.172 C 304.27 479.358 304.192 479.543 304.105 479.735 C 304.056 479.844 304.001 479.956 303.947 480.068 L 303.895 480.175 C 303.783 480.408 303.665 480.643 303.539 480.88 C 303.466 481.017 303.392 481.154 303.313 481.294 C 303.15 481.584 302.975 481.876 302.79 482.167 L 302.742 482.244 C 302.735 482.255 302.727 482.267 302.72 482.279 L 302.72 482.28 L 304.606 482.292 L 307.207 482.299 L 307.373 482.299 C 316.744 482.299 331.123 480.091 346.407 469.568 C 355.778 463.115 367.529 448.515 370.291 415.604 C 371.995 395.314 369.619 372.38 364.239 357.178 C 362.67 352.742 360.803 348.521 358.671 344.581 C 357.96 343.267 357.219 341.985 356.451 340.737 L 356.163 340.27 L 356.158 340.285 C 351.7 333.141 346.637 327.494 340.484 322.809 C 340.477 322.803 340.469 322.797 340.461 322.791 C 339.93 322.387 339.393 321.987 338.845 321.597 C 338.108 321.065 337.359 320.541 336.585 320.038 C 336.583 320.036 336.582 320.035 336.58 320.034 C 336.578 320.033 336.576 320.031 336.574 320.03 C 327.869 314.456 318.063 311.466 307.424 311.144 C 307.424 311.144 307.424 311.144 307.423 311.144 C 306.549 311.117 305.664 311.104 304.792 311.104 C 279.455 311.103 257.183 322.435 245.214 341.417 C 241.608 347.139 240.394 352.441 241.704 356.75 C 242.721 360.099 245.041 362.163 246.872 362.978 C 247.318 363.176 247.85 363.273 248.501 363.273 C 253.01 363.273 266.497 358.169 270.922 350.123 C 275.308 352.817 280.136 354.127 285.688 354.127 C 292.008 354.127 298.274 352.401 304.104 350.536 C 303.338 350.781 302.562 351.023 301.781 351.26" style="fill: rgb(146, 143, 137);">
    <title>body</title>
  </path>
  <path class="st11" d="M 307.117 354.673 C 298.521 354.673 290.175 355.42 283.641 359.093 C 281.586 360.249 278.459 361.646 277.98 362.984 C 277.02 365.664 284.735 365.536 284.735 365.536 C 284.735 365.536 273.314 367.39 273.042 369.839 C 272.73 372.653 283.282 370.865 283.282 370.865 C 283.282 370.865 273.498 373.596 275.093 376.171 C 276.533 378.496 286.525 374.741 286.525 374.741 C 286.525 374.741 280.312 378.72 282.539 379.568 C 282.941 379.721 283.431 379.635 283.919 379.635 C 287.05 379.635 291.397 378.366 295.693 377.412 C 300.937 376.248 306.229 374.108 311.759 374.108 C 313.826 374.108 316.125 374.089 317.873 374.451" style="fill: rgb(146, 143, 137); stroke: rgb(0, 0, 0); stroke-linejoin: round; stroke-miterlimit: 10; stroke-width: 1px; stroke-linecap: square;">
    <title>hand 2</title>
  </path>
  <path d="M 380.517 319.551 C 380.517 333.507 371.732 347.839 358.002 344.822 C 344.271 341.804 334.321 328.544 332.231 317.791 C 330.141 307.038 340.974 293.708 358.002 294.28 C 375.03 294.852 380.517 305.594 380.517 319.551 Z" style="fill: rgb(255, 255, 255); stroke: rgb(0, 0, 0); stroke-width: 3px;">
    <title>ear 2</title>
  </path>
  <path class="st11" d="M 238.4 362.74 C 235.519 362.74 231.418 365.064 228.86 368.146 C 227.764 369.468 226.009 372.115 226.552 375.009 C 227.173 378.315 229.655 380.287 232.858 380.287 C 234.306 380.287 232.938 377.078 232.938 377.078 C 232.938 377.078 239.259 377.639 240.232 376.666 C 241.343 375.555 239.163 372.959 239.163 372.959 C 239.163 372.959 244.966 371.43 243.676 368.783 C 243.118 367.639 239.965 367.694 239.965 367.694 C 239.965 367.694 241.664 363.59 240.627 363.175 C 240.217 363.012 238.933 362.74 238.4 362.74 Z" style="fill: rgb(146, 143, 137);">
    <title>hand</title>
  </path>
  <path class="st11" d="M 238.4 362.74 C 235.554 363.189 231.418 365.064 228.86 368.146 C 227.764 369.468 226.009 372.115 226.552 375.009 C 226.905 376.886 228.486 379.73 232.568 380.212 C 235.094 380.51 232.698 376.976 232.698 376.976 C 232.698 376.976 239.089 377.809 240.232 376.666 C 241.386 375.511 238.677 372.825 238.677 372.825 C 238.677 372.825 244.279 371.336 243.866 369.629 C 243.402 367.71 239.154 367.754 239.154 367.754 C 239.154 367.754 243.269 365.001 240.957 363.062 C 240.448 362.635 239.335 362.592 238.4 362.74 Z" style="fill: rgb(146, 143, 137); stroke: rgb(0, 0, 0); stroke-linecap: round; stroke-linejoin: round; stroke-miterlimit: 10; stroke-width: 1px;">
    <title>hand</title>
  </path>
  <path d="M 267.608 339.341 C 264.64 341.567 265.535 344.32 268.852 344.734 C 272.17 345.148 272.429 345.368 275.488 343.074 C 278.806 340.586 279.221 336.437 275.488 336.853 C 271.756 337.268 269.267 338.097 267.608 339.341 Z">
    <title>nose</title>
  </path>
  <circle cx="255.165" cy="341.001" r="3.733">
    <title>eye 1</title>
  </circle>
  <circle cx="298.299" cy="330.633" r="3.733">
    <title>eye 2</title>
  </circle>
  <path class="st11" d="M 205.391 424.937 C 208.11 424.601 212.905 437.062 212.905 437.062 C 212.905 437.062 210.861 425.53 214.223 428.231 C 219.549 432.508 233.633 455.95 236.505 462.518 C 237.471 464.725 238.824 470.262 236.843 473.292 C 235.962 474.64 234.527 475.323 232.579 475.323 C 231.766 475.323 230.068 475.003 229.866 474.966 C 217.862 472.786 196.473 449.416 195.138 439.432 C 194.618 435.544 201.112 441.641 201.112 441.641 C 201.112 441.641 194.223 430.64 197.284 428.699 C 199.842 427.077 205.881 437.068 205.881 437.068 C 205.881 437.068 201.603 425.406 205.391 424.937 Z" style="stroke: rgb(0, 0, 0); stroke-linecap: round; stroke-linejoin: round; stroke-miterlimit: 10; fill: rgb(0, 0, 0); stroke-width: 4px;">
    <title>foot 1</title>
  </path>
  <path class="st11" d="M 205.391 424.937 C 208.11 424.601 212.905 437.062 212.905 437.062 C 212.905 437.062 210.861 425.53 214.223 428.231 C 219.549 432.508 233.633 455.95 236.505 462.518 C 237.471 464.725 238.824 470.262 236.843 473.292 C 235.962 474.64 234.527 475.323 232.579 475.323 C 231.766 475.323 230.068 475.003 229.866 474.966 C 217.862 472.786 196.473 449.416 195.138 439.432 C 194.618 435.544 201.112 441.641 201.112 441.641 C 201.112 441.641 194.223 430.64 197.284 428.699 C 199.842 427.077 205.881 437.068 205.881 437.068 C 205.881 437.068 201.603 425.406 205.391 424.937 Z" style="fill: rgb(146, 143, 137); stroke: rgb(0, 0, 0); stroke-linecap: round; stroke-linejoin: round; stroke-miterlimit: 10; stroke-width: 1px;">
    <title>foot 1</title>
  </path>
  <g>
    <title>foot 2</title>
    <path class="st11" d="M 286.443 430.27 C 284.048 431.399 288.379 441.989 288.379 441.989 C 288.379 441.989 282.193 431.52 280.206 433.481 C 278.274 435.388 283.734 444.713 283.734 444.713 C 283.734 444.713 277.761 439.648 275.756 439.687 C 270.85 439.783 278.105 449.119 279.484 454.88 C 280.089 457.408 280.714 460.022 281.084 462.424 C 281.552 465.469 281.436 468.973 281.324 472.362 C 281.13 478.169 280.931 484.157 283.809 487.133 C 285.199 488.569 287.225 489.267 290.004 489.267 C 290.666 489.267 291.348 489.222 292.089 489.13 C 292.244 489.11 292.393 489.085 292.543 489.059 L 292.686 489.034 C 293.186 488.952 293.632 488.859 294.052 488.749 C 294.247 488.698 294.443 488.645 294.633 488.587 C 295.083 488.449 295.529 488.287 295.962 488.105 L 296.048 488.071 C 296.147 488.033 296.245 487.994 296.338 487.951 C 296.893 487.699 297.416 487.421 297.895 487.124 C 297.95 487.09 298.004 487.053 298.056 487.016 C 298.45 486.765 298.862 486.471 299.257 486.156 C 299.351 486.081 299.442 486.004 299.532 485.927 L 299.588 485.879 C 299.902 485.613 300.204 485.336 300.485 485.056 L 300.553 484.988 C 300.626 484.916 300.699 484.843 300.769 484.769 C 301.087 484.435 301.387 484.093 301.661 483.751 C 301.694 483.714 301.728 483.674 301.76 483.633 C 302.054 483.259 302.334 482.871 302.614 482.446 C 302.659 482.378 302.701 482.311 302.742 482.244 L 302.79 482.167 C 302.975 481.876 303.15 481.584 303.313 481.294 C 303.392 481.155 303.466 481.017 303.539 480.88 C 303.665 480.643 303.783 480.408 303.895 480.175 L 303.947 480.068 C 304.001 479.956 304.056 479.844 304.105 479.735 C 304.192 479.543 304.27 479.358 304.347 479.172 C 304.539 478.71 304.692 478.317 304.814 477.969 L 304.833 477.915 C 304.927 477.647 305.007 477.399 305.078 477.169 C 305.418 476.063 305.555 475.311 305.561 475.28 C 305.568 475.239 305.573 475.215 305.58 475.193 C 307.487 469.157 308.342 463.855 306.724 456.07 C 306.59 455.427 306.436 454.752 306.251 454.006 L 306.229 453.913 L 306.191 453.762 C 305.996 452.982 305.795 452.241 305.578 451.498 C 304.407 447.282 299.889 439.788 295.018 434.667 C 292.602 432.127 294.22 441.124 294.22 441.124 C 294.22 441.124 288.766 429.175 286.443 430.27 Z" style="stroke-linecap: round; stroke-linejoin: round; stroke-miterlimit: 10; fill: rgb(0, 0, 0); stroke-width: 5px;">
      <title>foot 2</title>
    </path>
    <path class="st11" d="M 286.443 430.27 C 284.048 431.399 288.379 441.989 288.379 441.989 C 288.379 441.989 282.193 431.52 280.206 433.481 C 278.274 435.388 283.734 444.713 283.734 444.713 C 283.734 444.713 277.761 439.648 275.756 439.687 C 270.85 439.783 278.105 449.119 279.484 454.88 C 280.089 457.408 280.714 460.022 281.084 462.424 C 281.552 465.469 281.436 468.973 281.324 472.362 C 281.13 478.169 280.931 484.157 283.809 487.133 C 285.199 488.569 287.225 489.267 290.004 489.267 C 290.666 489.267 291.348 489.222 292.089 489.13 C 292.244 489.11 292.393 489.085 292.543 489.059 L 292.686 489.034 C 293.186 488.952 293.632 488.859 294.052 488.749 C 294.247 488.698 294.443 488.645 294.633 488.587 C 295.083 488.449 295.529 488.287 295.962 488.105 L 296.048 488.071 C 296.147 488.033 296.245 487.994 296.338 487.951 C 296.893 487.699 297.416 487.421 297.895 487.124 C 297.95 487.09 298.004 487.053 298.056 487.016 C 298.45 486.765 298.862 486.471 299.257 486.156 C 299.351 486.081 299.442 486.004 299.532 485.927 L 299.588 485.879 C 299.902 485.613 300.204 485.336 300.485 485.056 L 300.553 484.988 C 300.626 484.916 300.699 484.843 300.769 484.769 C 301.087 484.435 301.387 484.093 301.661 483.751 C 301.694 483.714 301.728 483.674 301.76 483.633 C 302.054 483.259 302.334 482.871 302.614 482.446 C 302.659 482.378 302.701 482.311 302.742 482.244 L 302.79 482.167 C 302.975 481.876 303.15 481.584 303.313 481.294 C 303.392 481.155 303.466 481.017 303.539 480.88 C 303.665 480.643 303.783 480.408 303.895 480.175 L 303.947 480.068 C 304.001 479.956 304.056 479.844 304.105 479.735 C 304.192 479.543 304.27 479.358 304.347 479.172 C 304.539 478.71 304.692 478.317 304.814 477.969 L 304.833 477.915 C 304.927 477.647 305.007 477.399 305.078 477.169 C 305.418 476.063 305.555 475.311 305.561 475.28 C 305.568 475.239 305.573 475.215 305.58 475.193 C 307.487 469.157 308.342 463.855 306.724 456.07 C 306.59 455.427 306.436 454.752 306.251 454.006 L 306.229 453.913 L 306.191 453.762 C 305.996 452.982 305.795 452.241 305.578 451.498 C 304.407 447.282 300.53 439.278 295.018 434.667 C 291.308 431.563 295.179 443.403 295.179 443.403 C 295.179 443.403 288.766 429.175 286.443 430.27 Z" style="fill: rgb(146, 143, 137); stroke: rgb(0, 0, 0); stroke-linecap: round; stroke-linejoin: round; stroke-miterlimit: 10; stroke-width: 1px;">
      <title>foot 2</title>
    </path>
  </g>
</svg>