<?xml version="1.0" encoding="utf-8"?>
<svg viewBox="0 0 500 500" xmlns="http://www.w3.org/2000/svg">
  <defs>
    <clipPath id="clippath34" transform="">
      <path d="M 0 396 L 324 396 L 324 0 L 0 0 Z" style="fill: none; clip-rule: nonzero;"/>
    </clipPath>
    <clipPath id="clippath35" transform="">
      <path d="M 215.78 124.093 C 194.193 117.036 182.373 93.733 189.429 72.147 L 189.429 72.147 C 196.486 50.559 219.79 38.739 241.376 45.796 L 241.376 45.796 C 262.963 52.853 274.784 76.156 267.727 97.742 L 267.727 97.742 C 262.054 115.094 245.887 126.137 228.549 126.136 L 228.549 126.136 C 224.318 126.135 220.015 125.477 215.78 124.093" style="fill: none; clip-rule: nonzero;"/>
    </clipPath>
    <clipPath id="clippath36" transform="">
      <path d="M 0 396 L 324 396 L 324 0 L 0 0 Z" style="fill: none; clip-rule: nonzero;"/>
    </clipPath>
    <clipPath id="clippath37" transform="">
      <path d="M 215.78 124.093 C 194.193 117.036 182.373 93.733 189.429 72.147 L 189.429 72.147 C 196.486 50.559 219.79 38.739 241.376 45.796 L 241.376 45.796 C 262.963 52.853 274.784 76.156 267.727 97.742 L 267.727 97.742 C 262.054 115.094 245.887 126.137 228.549 126.136 L 228.549 126.136 C 224.318 126.135 220.015 125.477 215.78 124.093" style="fill: none; clip-rule: nonzero;"/>
    </clipPath>
    <clipPath id="clippath38" transform="">
      <path d="M 0 396 L 324 396 L 324 0 L 0 0 Z" style="fill: none; clip-rule: nonzero;"/>
    </clipPath>
  </defs>
  <g transform="matrix(2.527857, 0.707408, 0.707408, -2.527857, -386.056366, 353.523224)" style="">
    <title>Koala</title>
    <g style="clip-path: url(#clippath34);">
      <g transform="translate(265.2686 166.5332)">
        <path d="M 0 0 C -0.684 1.372 -1.48 2.572 -2.374 3.587 C -3.268 4.602 -4.259 5.43 -5.333 6.06 C -6.049 6.479 -6.801 6.811 -7.586 7.048 C -7.803 7.114 -8.02 7.168 -8.237 7.21 C -9.758 7.508 -11.284 7.266 -12.663 6.875 C -12.7 7.053 -12.749 7.218 -12.807 7.371 C -12.979 7.831 -13.224 8.186 -13.439 8.434 C -13.627 8.649 -13.856 8.864 -14.136 9.053 C -14.338 9.188 -14.575 9.301 -14.831 9.398 C -15.107 9.504 -15.407 9.591 -15.753 9.628 C -16.42 9.7 -17.223 9.624 -18.185 9.31 C -18.195 9.306 -18.206 9.302 -18.217 9.299 C -18.452 9.221 -18.707 9.121 -18.97 9.013 C -19.025 8.989 -19.08 8.967 -19.137 8.942 C -19.399 8.83 -19.671 8.704 -19.955 8.563 C -19.998 8.543 -20.042 8.52 -20.085 8.498 C -20.355 8.362 -20.634 8.214 -20.921 8.054 C -20.964 8.03 -21.005 8.008 -21.049 7.983 C -21.364 7.806 -21.688 7.613 -22.019 7.409 C -22.07 7.378 -22.122 7.346 -22.173 7.313 C -22.864 6.882 -23.583 6.396 -24.316 5.863 C -24.354 5.837 -24.39 5.811 -24.427 5.783 C -25.591 4.932 -26.784 3.962 -27.951 2.899 C -30.712 0.386 -33.307 -2.642 -34.941 -5.836 L -34.941 -5.837 C -35.249 -5.853 -35.563 -5.876 -35.891 -5.913 C -36.056 -5.343 -36.382 -4.804 -36.932 -4.328 C -37.223 -4.077 -37.516 -3.886 -37.813 -3.747 C -38.11 -3.609 -38.413 -3.525 -38.723 -3.489 C -39.031 -3.453 -39.348 -3.465 -39.673 -3.52 C -39.998 -3.574 -40.333 -3.672 -40.678 -3.806 C -41.023 -3.939 -41.381 -4.11 -41.751 -4.312 C -42.861 -4.919 -44.093 -5.807 -45.504 -6.824 C -45.834 -7.062 -46.182 -7.312 -46.534 -7.563 C -46.887 -7.814 -47.245 -8.066 -47.596 -8.306 C -47.784 -7.939 -48.032 -7.614 -48.332 -7.342 C -48.632 -7.068 -48.984 -6.849 -49.38 -6.691 C -49.551 -6.624 -49.722 -6.569 -49.895 -6.528 C -50.584 -6.362 -51.293 -6.408 -52.091 -6.683 C -53.288 -7.095 -54.686 -8.021 -56.515 -9.521 C -56.82 -9.771 -57.137 -10.037 -57.467 -10.318 C -58.457 -11.165 -59.565 -12.156 -60.821 -13.302 C -61.239 -13.683 -61.674 -14.081 -62.126 -14.497 C -63.169 -15.456 -64.154 -16.362 -64.855 -16.965 C -65.201 -17.262 -65.554 -17.582 -65.911 -17.921 C -66.214 -18.208 -66.522 -18.518 -66.831 -18.832 C -66.881 -18.883 -66.929 -18.927 -66.979 -18.978 C -67.699 -19.72 -68.434 -20.534 -69.17 -21.401 C -70.442 -20.4 -71.998 -19.57 -73.715 -19.04 C -73.808 -19.011 -73.902 -18.987 -73.996 -18.96 C -74.312 -18.869 -74.63 -18.788 -74.954 -18.72 C -75.088 -18.69 -75.223 -18.665 -75.357 -18.64 C -75.652 -18.586 -75.95 -18.543 -76.251 -18.508 C -76.4 -18.49 -76.55 -18.472 -76.7 -18.459 C -77.009 -18.433 -77.319 -18.423 -77.631 -18.419 C -77.77 -18.417 -77.906 -18.408 -78.046 -18.411 C -78.494 -18.419 -78.944 -18.445 -79.396 -18.501 C -79.623 -18.529 -79.853 -18.562 -80.085 -18.602 C -81.015 -18.758 -81.99 -19.002 -82.984 -19.326 C -83.232 -19.407 -83.482 -19.492 -83.732 -19.583 C -84.483 -19.855 -85.241 -20.17 -85.992 -20.525 C -88.246 -21.59 -90.447 -23.012 -92.274 -24.692 C -92.68 -25.065 -93.067 -25.452 -93.433 -25.85 C -93.98 -26.446 -94.479 -27.07 -94.915 -27.716 C -96.225 -29.653 -96.979 -31.794 -96.856 -34.041 C -96.813 -34.818 -96.754 -35.561 -96.679 -36.272 C -96.637 -36.67 -96.578 -37.034 -96.526 -37.411 C -96.485 -37.704 -96.452 -38.012 -96.405 -38.293 C -96.325 -38.778 -96.227 -39.229 -96.127 -39.68 C -96.096 -39.821 -96.07 -39.975 -96.037 -40.113 C -95.916 -40.619 -95.776 -41.093 -95.63 -41.552 C -95.61 -41.613 -95.595 -41.682 -95.574 -41.742 C -95.411 -42.235 -95.23 -42.696 -95.038 -43.134 C -95.03 -43.151 -95.024 -43.172 -95.017 -43.189 C -94.407 -44.558 -93.647 -45.653 -92.74 -46.497 C -93.318 -47.248 -93.896 -48.005 -94.474 -48.795 C -95.231 -49.835 -95.978 -50.895 -96.713 -51.967 C -96.93 -52.284 -97.14 -52.609 -97.355 -52.929 C -97.873 -53.698 -98.39 -54.471 -98.895 -55.254 C -99.124 -55.61 -99.348 -55.973 -99.574 -56.331 C -100.059 -57.098 -100.539 -57.865 -101.01 -58.642 C -101.223 -58.993 -101.431 -59.347 -101.641 -59.7 C -102.12 -60.507 -102.595 -61.315 -103.059 -62.131 C -103.24 -62.449 -103.418 -62.77 -103.598 -63.089 C -104.084 -63.959 -104.563 -64.831 -105.031 -65.707 C -105.176 -65.979 -105.319 -66.25 -105.462 -66.521 C -105.96 -67.469 -106.446 -68.417 -106.921 -69.369 C -107.024 -69.575 -107.128 -69.781 -107.23 -69.988 C -107.744 -71.03 -108.242 -72.073 -108.727 -73.116 C -108.783 -73.238 -108.841 -73.36 -108.897 -73.482 C -109.435 -74.65 -109.954 -75.815 -110.451 -76.979 C -110.453 -76.981 -110.454 -76.984 -110.455 -76.987 C -111.116 -76.877 -111.765 -76.78 -112.434 -76.66 C -112.531 -76.644 -112.657 -76.627 -112.798 -76.617 C -112.852 -76.612 -112.908 -76.61 -112.967 -76.608 C -113.789 -76.584 -115.105 -76.815 -116.23 -78.206 C -116.691 -78.775 -117.121 -79.531 -117.468 -80.556 C -117.563 -80.834 -117.651 -81.132 -117.733 -81.45 C -117.79 -81.674 -117.843 -81.907 -117.893 -82.146 C -117.911 -82.231 -117.925 -82.319 -117.942 -82.405 C -117.972 -82.562 -118.001 -82.719 -118.027 -82.88 C -118.045 -82.989 -118.06 -83.102 -118.076 -83.213 C -118.096 -83.354 -118.116 -83.496 -118.133 -83.64 C -118.148 -83.768 -118.16 -83.896 -118.172 -84.026 C -118.185 -84.154 -118.196 -84.282 -118.205 -84.412 C -118.216 -84.557 -118.224 -84.7 -118.231 -84.846 C -118.236 -84.961 -118.24 -85.076 -118.243 -85.191 C -118.247 -85.351 -118.25 -85.509 -118.249 -85.668 C -118.249 -85.763 -118.246 -85.857 -118.244 -85.952 C -118.239 -86.132 -118.235 -86.31 -118.224 -86.488 C -118.221 -86.543 -118.215 -86.598 -118.211 -86.652 C -118.143 -87.61 -117.975 -88.544 -117.68 -89.394 C -117.677 -89.4 -117.675 -89.408 -117.673 -89.416 C -117.603 -89.616 -117.522 -89.809 -117.438 -89.997 C -117.424 -90.028 -117.411 -90.06 -117.397 -90.09 C -117.314 -90.269 -117.222 -90.439 -117.125 -90.607 C -117.104 -90.643 -117.084 -90.677 -117.063 -90.712 C -116.964 -90.874 -116.857 -91.03 -116.744 -91.18 C -116.72 -91.212 -116.694 -91.242 -116.669 -91.273 C -116.551 -91.422 -116.427 -91.564 -116.292 -91.697 C -116.271 -91.72 -116.247 -91.739 -116.224 -91.761 C -116.08 -91.898 -115.931 -92.03 -115.769 -92.148 C -116.037 -93.156 -116.282 -94.148 -116.504 -95.127 C -116.577 -95.445 -116.651 -95.764 -116.72 -96.079 C -116.794 -96.431 -116.866 -96.779 -116.935 -97.126 C -117.095 -97.924 -117.244 -98.714 -117.367 -99.486 C -117.445 -99.977 -117.44 -100.422 -117.372 -100.824 C -117.167 -102.028 -116.395 -102.83 -115.601 -103.219 C -114.745 -103.639 -113.913 -103.65 -113.083 -103.379 C -111.883 -102.986 -110.688 -102.004 -109.426 -100.807 C -109.006 -100.408 -108.578 -99.985 -108.141 -99.553 C -107.822 -99.238 -107.486 -98.899 -107.14 -98.549 C -107.116 -98.524 -107.091 -98.499 -107.067 -98.475 C -106.731 -98.134 -106.382 -97.774 -106.022 -97.402 C -106.024 -97.517 -106.027 -97.636 -106.029 -97.75 C -106.084 -100.475 -106.145 -103.082 -106.277 -105.536 C -106.347 -106.834 -106.431 -108.103 -106.557 -109.294 C -106.684 -110.492 -106.409 -111.337 -106.012 -111.927 C -105.898 -112.095 -105.775 -112.242 -105.648 -112.371 C -105.585 -112.436 -105.521 -112.495 -105.457 -112.551 C -105.071 -112.883 -104.685 -113.058 -104.474 -113.137 C -104.226 -113.229 -103.987 -113.279 -103.753 -113.312 C -103.273 -113.379 -102.818 -113.339 -102.389 -113.198 C -101.252 -112.826 -100.279 -111.824 -99.393 -110.723 C -99.098 -110.355 -98.812 -109.978 -98.532 -109.608 C -98.366 -109.389 -98.194 -109.158 -98.016 -108.916 C -97.659 -108.433 -97.278 -107.904 -96.874 -107.337 C -96.672 -107.054 -96.465 -106.76 -96.251 -106.458 C -95.399 -105.249 -94.462 -103.896 -93.455 -102.445 C -93.367 -102.318 -93.273 -102.185 -93.184 -102.055 C -93.004 -101.795 -92.823 -101.535 -92.637 -101.267 C -92.57 -101.171 -92.501 -101.071 -92.435 -100.975 C -92.178 -100.605 -91.917 -100.231 -91.649 -99.847 L -91.55 -99.703 C -91.258 -99.285 -90.961 -98.859 -90.657 -98.426 C -90.623 -98.378 -90.59 -98.33 -90.556 -98.282 C -90.226 -97.811 -89.89 -97.332 -89.546 -96.846 C -88.415 -96.894 -87.28 -96.928 -86.143 -96.949 C -86.068 -96.951 -85.995 -96.952 -85.921 -96.954 C -84.778 -96.975 -83.635 -96.985 -82.49 -96.982 L -82.49 -96.983 C -82.2 -97.685 -81.886 -98.373 -81.547 -99.049 C -81.546 -99.05 -81.546 -99.051 -81.546 -99.052 C -81.851 -99.123 -82.151 -99.205 -82.448 -99.303 C -83.149 -99.531 -83.813 -99.833 -84.43 -100.197 C -85.189 -100.646 -85.868 -101.201 -86.471 -101.826 C -87.335 -102.726 -88.031 -103.78 -88.488 -104.967 C -88.918 -106.083 -89.136 -107.256 -89.146 -108.451 C -89.154 -109.647 -88.954 -110.866 -88.549 -112.076 C -88.541 -112.099 -88.53 -112.12 -88.522 -112.143 C -88.274 -112.872 -87.946 -113.597 -87.549 -114.311 C -87.52 -114.365 -87.497 -114.42 -87.466 -114.474 C -85.851 -117.296 -82.137 -120.485 -77.718 -123.139 C -77.637 -123.187 -77.556 -123.235 -77.475 -123.284 C -74.3 -125.164 -70.779 -126.763 -67.416 -127.747 C -66.867 -127.907 -66.324 -128.047 -65.786 -128.174 C -64.324 -128.517 -62.907 -128.734 -61.584 -128.787 C -60.98 -128.812 -60.396 -128.802 -59.835 -128.757 C -58.953 -128.686 -58.144 -128.531 -57.427 -128.297 C -56.087 -127.858 -55.008 -127.118 -54.258 -126.143 C -53.808 -125.557 -53.476 -124.886 -53.275 -124.146 C -53.218 -123.931 -53.174 -123.715 -53.141 -123.499 C -53.128 -123.417 -53.123 -123.336 -53.113 -123.254 C -53.098 -123.119 -53.082 -122.984 -53.074 -122.85 C -53.068 -122.745 -53.07 -122.642 -53.069 -122.537 C -53.068 -122.427 -53.065 -122.315 -53.069 -122.204 C -53.074 -122.085 -53.084 -121.965 -53.094 -121.846 C -53.102 -121.753 -53.108 -121.659 -53.12 -121.566 C -53.136 -121.433 -53.155 -121.3 -53.178 -121.166 C -53.19 -121.092 -53.202 -121.019 -53.217 -120.944 C -53.245 -120.796 -53.276 -120.648 -53.312 -120.501 C -53.325 -120.448 -53.338 -120.396 -53.352 -120.343 C -53.394 -120.178 -53.439 -120.016 -53.489 -119.854 C -53.498 -119.825 -53.507 -119.797 -53.517 -119.769 C -53.574 -119.587 -53.635 -119.408 -53.7 -119.23 C -53.426 -119.303 -53.152 -119.373 -52.879 -119.44 L -52.812 -119.458 C -50.951 -120.251 -49.032 -120.908 -47.068 -121.424 C -47.028 -121.434 -46.988 -121.444 -46.948 -121.455 C -45.026 -121.952 -43.064 -122.313 -41.074 -122.528 C -41.003 -122.536 -40.932 -122.545 -40.86 -122.553 C -40.396 -122.601 -39.93 -122.641 -39.462 -122.673 C -39.394 -122.678 -39.325 -122.681 -39.256 -122.686 C -37.804 -122.778 -36.34 -122.793 -34.869 -122.729 C -34.796 -122.726 -34.724 -122.724 -34.65 -122.72 C -34.2 -122.698 -33.749 -122.666 -33.298 -122.629 C -33.176 -122.619 -33.054 -122.607 -32.932 -122.597 C -32.475 -122.555 -32.018 -122.509 -31.561 -122.451 C -31.553 -122.45 -31.544 -122.448 -31.536 -122.447 C -30.494 -122.315 -29.451 -122.144 -28.408 -121.929 C -27.837 -122.864 -27.147 -123.688 -26.291 -124.328 C -26.252 -124.358 -26.21 -124.387 -26.169 -124.416 C -25.896 -124.61 -25.612 -124.793 -25.304 -124.948 C -23.541 -125.837 -21.464 -125.9 -19.13 -125.138 C -18.645 -124.979 -18.158 -124.785 -17.63 -124.54 C -17.504 -124.481 -17.384 -124.42 -17.278 -124.364 L -17.217 -124.332 C -16.873 -124.156 -16.562 -123.98 -16.254 -123.787 C -16.121 -123.703 -15.988 -123.616 -15.861 -123.529 C -15.559 -123.321 -15.264 -123.097 -14.983 -122.861 C -14.9 -122.795 -14.818 -122.729 -14.707 -122.631 C -14.346 -122.308 -14.012 -121.971 -13.716 -121.633 C -13.668 -121.577 -13.623 -121.522 -13.577 -121.466 C -13.344 -121.188 -13.116 -120.888 -12.897 -120.569 L -12.75 -120.346 C -12.745 -120.338 -12.717 -120.294 -12.712 -120.286 C -12.537 -120.014 -12.374 -119.736 -12.217 -119.441 L -12.215 -119.438 C -12.168 -119.352 -12.123 -119.267 -12.082 -119.184 C -11.933 -118.885 -11.795 -118.581 -11.674 -118.281 C -11.665 -118.26 -11.653 -118.23 -11.643 -118.206 C -11.631 -118.177 -11.62 -118.151 -11.606 -118.118 C -11.589 -118.072 -11.577 -118.026 -11.56 -117.981 L -10.684 -117.699 C -10.03 -117.485 -9.389 -117.257 -8.753 -117.02 C -8.568 -116.951 -8.388 -116.877 -8.205 -116.806 C -7.746 -116.628 -7.29 -116.446 -6.841 -116.256 C -6.651 -116.176 -6.465 -116.093 -6.277 -116.011 C -5.823 -115.811 -5.373 -115.604 -4.928 -115.392 C -4.772 -115.317 -4.617 -115.243 -4.463 -115.168 C -3.945 -114.913 -3.436 -114.649 -2.932 -114.377 C -2.86 -114.339 -2.789 -114.303 -2.719 -114.264 C -0.266 -112.921 2.022 -111.364 4.146 -109.602 C 4.318 -109.64 4.498 -109.664 4.673 -109.696 C 4.923 -109.742 5.172 -109.791 5.429 -109.825 C 5.632 -109.854 5.84 -109.869 6.046 -109.89 C 6.286 -109.914 6.524 -109.938 6.769 -109.953 C 6.98 -109.965 7.193 -109.97 7.407 -109.976 C 7.654 -109.981 7.901 -109.986 8.151 -109.983 C 8.362 -109.98 8.573 -109.974 8.786 -109.965 C 9.045 -109.954 9.303 -109.938 9.563 -109.917 C 9.767 -109.9 9.97 -109.884 10.173 -109.861 C 10.447 -109.831 10.719 -109.794 10.99 -109.753 C 11.18 -109.725 11.368 -109.699 11.556 -109.666 C 11.858 -109.612 12.156 -109.548 12.455 -109.481 C 12.607 -109.447 12.762 -109.418 12.912 -109.381 C 13.359 -109.271 13.8 -109.147 14.229 -109.007 L 14.229 -109.007 C 14.689 -108.856 15.137 -108.689 15.569 -108.506 C 16.002 -108.322 16.418 -108.123 16.815 -107.907 C 17.127 -107.737 17.426 -107.56 17.71 -107.373 C 17.995 -107.187 18.266 -106.992 18.522 -106.789 C 19.036 -106.384 19.493 -105.946 19.892 -105.481 C 20.687 -104.551 21.247 -103.507 21.548 -102.374 C 21.612 -102.133 21.657 -101.892 21.687 -101.653 C 21.772 -100.938 21.711 -100.241 21.576 -99.591 C 21.729 -99.485 21.852 -99.382 21.944 -99.295 C 22.136 -99.117 22.409 -98.814 22.629 -98.381 C 22.996 -97.658 23.217 -96.571 22.668 -95.093 C 22.595 -94.893 22.5 -94.675 22.388 -94.442 C 22.32 -94.303 22.233 -94.148 22.153 -93.998 C 22.102 -93.901 22.059 -93.812 22.001 -93.71 C 21.874 -93.486 21.728 -93.249 21.575 -93.009 C 21.555 -92.977 21.538 -92.946 21.518 -92.913 C 20.629 -91.526 19.346 -89.914 17.815 -88.411 C 17.813 -88.41 17.812 -88.409 17.812 -88.407 C 17.942 -87.843 18.051 -87.288 18.149 -86.738 C 18.176 -86.591 18.202 -86.443 18.227 -86.296 C 18.314 -85.765 18.391 -85.24 18.451 -84.725 C 18.465 -84.609 18.475 -84.497 18.487 -84.383 C 18.535 -83.934 18.573 -83.491 18.603 -83.056 C 18.611 -82.939 18.621 -82.821 18.628 -82.705 C 18.656 -82.214 18.672 -81.733 18.68 -81.261 C 18.682 -81.13 18.682 -81.002 18.683 -80.872 C 18.685 -80.426 18.681 -79.986 18.668 -79.56 C 18.666 -79.506 18.665 -79.452 18.663 -79.399 C 18.646 -78.953 18.621 -78.521 18.591 -78.097 C 18.583 -77.985 18.575 -77.875 18.566 -77.766 C 18.533 -77.347 18.495 -76.938 18.451 -76.544 C 18.441 -76.46 18.432 -76.381 18.422 -76.299 C 18.381 -75.946 18.336 -75.604 18.289 -75.273 C 18.279 -75.203 18.27 -75.132 18.26 -75.063 C 18.206 -74.695 18.149 -74.344 18.092 -74.005 C 18.077 -73.92 18.062 -73.839 18.048 -73.756 C 17.991 -73.43 17.934 -73.113 17.876 -72.816 C 17.875 -72.812 17.875 -72.806 17.874 -72.801 C 17.976 -72.739 18.074 -72.672 18.171 -72.598 C 18.57 -72.289 18.963 -71.986 19.21 -71.266 C 19.278 -71.067 19.332 -70.827 19.375 -70.557 C 19.411 -70.336 19.44 -70.098 19.456 -69.818 C 19.468 -69.611 19.473 -69.387 19.473 -69.142 C 19.467 -67.676 19.227 -65.509 18.615 -62.217 C 18.435 -61.246 18.18 -59.983 17.837 -58.525 C 17.632 -57.65 17.396 -56.705 17.124 -55.711 C 16.944 -55.049 16.748 -54.363 16.537 -53.663 C 16.431 -53.313 16.321 -52.959 16.207 -52.602 C 15.638 -50.815 14.967 -48.95 14.182 -47.103 C 11.683 -41.222 9.479 -37.201 6.576 -33.223 C 6.29 -32.831 5.995 -32.44 5.696 -32.049 C 5.596 -31.918 5.492 -31.785 5.39 -31.654 C 5.187 -31.392 4.98 -31.129 4.771 -30.865 C 4.648 -30.712 4.524 -30.558 4.4 -30.404 C 4.2 -30.156 3.996 -29.907 3.79 -29.657 C 3.658 -29.499 3.529 -29.34 3.396 -29.18 C 3.121 -28.853 2.841 -28.521 2.555 -28.187 C 2.328 -27.921 2.094 -27.649 1.859 -27.379 C 1.709 -27.206 1.561 -27.034 1.408 -26.859 C 1.175 -26.593 0.935 -26.319 0.694 -26.047 C 0.578 -25.915 0.461 -25.783 0.343 -25.649 C 0.068 -25.34 -0.212 -25.025 -0.497 -24.706 L -0.501 -24.702 C -0.304 -24.417 -0.121 -24.131 0.05 -23.845 C 0.077 -23.799 0.103 -23.753 0.129 -23.707 C 0.263 -23.478 0.389 -23.249 0.507 -23.021 C 0.547 -22.944 0.585 -22.868 0.623 -22.792 C 0.726 -22.586 0.821 -22.383 0.912 -22.179 C 0.944 -22.104 0.979 -22.031 1.011 -21.957 C 1.125 -21.689 1.233 -21.423 1.329 -21.16 C 1.471 -20.773 1.602 -20.377 1.721 -19.971 C 1.96 -19.159 2.154 -18.31 2.307 -17.434 C 2.535 -16.12 2.666 -14.748 2.703 -13.353 C 2.764 -11.027 2.563 -8.64 2.108 -6.358 C 1.654 -4.076 0.948 -1.9 0 0" style="fill: rgb(13, 13, 13); fill-opacity: 1;"/>
      </g>
    </g>
    <g style="clip-path: url(#clippath34);">
      <g transform="translate(271.8447 133.3096)">
        <path d="M 0 0 C -1.981 2.714 -4.268 5.382 -7.077 8.521 C -6.258 9.705 -5.668 10.913 -5.247 12.063 C -2.984 18.243 -3.543 27.142 -6.576 33.224 C -8.4 36.882 -11.023 39.319 -14.162 40.271 C -15.896 40.798 -17.663 40.545 -19.239 40.099 C -19.388 40.808 -19.729 41.326 -20.016 41.657 C -20.765 42.521 -22.195 43.371 -24.761 42.533 C -24.771 42.529 -24.782 42.525 -24.793 42.522 C -29.012 41.125 -37.784 34.688 -41.518 27.387 C -41.825 27.371 -42.139 27.348 -42.467 27.311 C -42.632 27.881 -42.958 28.42 -43.508 28.896 C -45.831 30.904 -48.317 29.112 -52.08 26.399 C -52.74 25.924 -53.471 25.397 -54.172 24.918 C -54.548 25.65 -55.164 26.219 -55.956 26.532 C -58.69 27.613 -61.468 25.38 -68.702 18.727 C -69.745 17.768 -70.73 16.861 -71.432 16.259 C -72.799 15.084 -74.271 13.562 -75.746 11.822 C -78.335 13.86 -82.111 15.201 -85.973 14.723 C -93.21 13.827 -103.87 7.171 -103.433 -0.817 C -103.098 -6.949 -101.742 -11.018 -99.316 -13.273 C -99.895 -14.024 -100.473 -14.781 -101.05 -15.571 C -107.363 -24.226 -112.908 -34.117 -117.031 -43.764 C -117.692 -43.653 -118.341 -43.557 -119.01 -43.437 C -119.923 -43.273 -123.004 -43.136 -124.309 -48.227 C -125.173 -51.598 -125.225 -56.816 -122.345 -58.925 C -123.021 -61.463 -123.57 -63.927 -123.943 -66.263 C -124.256 -68.224 -123.236 -69.477 -122.177 -69.995 C -121.321 -70.415 -120.489 -70.427 -119.659 -70.155 C -118.06 -69.633 -116.467 -68.059 -114.717 -66.329 C -114.069 -65.689 -113.357 -64.963 -112.598 -64.179 C -112.6 -64.293 -112.603 -64.412 -112.605 -64.526 C -112.689 -68.693 -112.769 -72.628 -113.133 -76.07 C -113.424 -78.809 -111.612 -79.703 -111.05 -79.913 C -110.293 -80.194 -109.604 -80.184 -108.966 -79.975 C -107.448 -79.479 -106.226 -77.862 -105.108 -76.385 C -103.783 -74.632 -102.044 -72.125 -100.031 -69.222 C -98.865 -67.54 -97.548 -65.642 -96.122 -63.622 C -93.782 -63.721 -91.426 -63.765 -89.066 -63.759 C -88.776 -64.461 -88.461 -65.151 -88.122 -65.828 C -88.427 -65.899 -88.728 -65.981 -89.024 -66.079 C -91.829 -66.996 -94.031 -69.061 -95.064 -71.743 C -96.212 -74.72 -95.849 -78.097 -94.042 -81.25 C -90.311 -87.769 -75.391 -96.256 -66.411 -95.533 C -65.529 -95.462 -64.72 -95.308 -64.003 -95.073 C -61.858 -94.372 -60.385 -92.897 -59.852 -90.922 C -59.412 -89.288 -59.699 -87.561 -60.276 -86.007 C -59.979 -86.086 -59.684 -86.161 -59.388 -86.234 C -51.873 -89.439 -43.392 -90.439 -34.976 -88.703 C -34.199 -89.975 -33.217 -91.051 -31.88 -91.725 C -30.117 -92.612 -28.04 -92.677 -25.706 -91.914 C -25.221 -91.755 -24.734 -91.562 -24.206 -91.316 C -24.08 -91.258 -23.96 -91.196 -23.854 -91.141 L -23.794 -91.108 C -23.449 -90.933 -23.139 -90.757 -22.83 -90.563 C -22.697 -90.479 -22.564 -90.393 -22.437 -90.306 C -22.135 -90.098 -21.84 -89.873 -21.56 -89.638 C -21.477 -89.571 -21.395 -89.505 -21.283 -89.407 C -20.922 -89.084 -20.588 -88.747 -20.292 -88.409 C -20.244 -88.354 -20.198 -88.299 -20.153 -88.242 C -19.92 -87.964 -19.692 -87.664 -19.474 -87.346 L -19.326 -87.122 C -19.321 -87.114 -19.293 -87.07 -19.288 -87.063 C -19.113 -86.79 -18.95 -86.513 -18.793 -86.218 L -18.791 -86.214 C -18.744 -86.128 -18.699 -86.043 -18.658 -85.96 C -18.508 -85.661 -18.371 -85.357 -18.25 -85.058 C -18.229 -85.011 -18.208 -84.957 -18.183 -84.895 C -18.165 -84.849 -18.153 -84.803 -18.136 -84.758 L -17.26 -84.476 C -11.665 -82.646 -6.711 -79.932 -2.43 -76.378 C 0.676 -77.066 4.455 -76.828 7.653 -75.783 C 8.573 -75.482 9.445 -75.114 10.239 -74.684 C 12.733 -73.328 14.37 -71.415 14.972 -69.15 C 15.229 -68.184 15.18 -67.234 15 -66.367 C 15.153 -66.262 15.275 -66.158 15.368 -66.071 C 15.878 -65.597 16.97 -64.235 16.092 -61.869 C 15.508 -60.295 13.688 -57.591 11.235 -55.184 C 12.761 -48.623 11.966 -43.055 11.297 -39.577 C 11.399 -39.516 11.498 -39.448 11.595 -39.374 C 12.661 -38.55 13.669 -37.771 12.039 -28.993 C 11.462 -25.886 10.119 -19.79 7.605 -13.879 C 5.106 -7.998 2.902 -3.978 0 0" style="fill: rgb(13, 13, 13); fill-opacity: 1;"/>
      </g>
    </g>
    <g style="clip-path: url(#clippath34);">
      <g transform="translate(209.3086 139.5439)">
        <path d="M 0 0 C -39.317 -31.848 -21.992 -1.142 -39.317 -31.848 C -49.085 -49.16 -46.16 -68.938 -47.61 -82.621 C -48.362 -89.725 -22.898 -42.17 -5.851 -37.093 C 1.161 -35.005 1.546 -1.387 0 0" style="fill: rgb(13, 13, 13); fill-opacity: 1;"/>
      </g>
    </g>
    <g style="clip-path: url(#clippath34);">
      <g transform="translate(206.6494 138.2354)">
        <path d="M 0 0 Z M -4.11 -32.93 Z M -2.64 -2.902 C -9.822 -5.25 -22.807 -12.103 -34.042 -32.016 C -40.89 -44.153 -41.162 -57.658 -41.403 -69.573 C -41.428 -70.797 -41.452 -72.002 -41.483 -73.185 C -40.913 -72.368 -40.335 -71.534 -39.773 -70.724 C -27.77 -53.413 -15.118 -36.22 -4.092 -32.918 C -3.327 -32.447 -1.177 -28.779 -0.101 -17.278 C 0.485 -11.014 0.479 -5.19 0.268 -2.101 C -0.542 -2.279 -1.521 -2.536 -2.64 -2.902 M -43.77 -84.9 C -44.408 -85.109 -45.098 -85.12 -45.854 -84.839 C -46.417 -84.63 -48.229 -83.734 -47.938 -80.996 C -47.574 -77.554 -47.494 -73.619 -47.41 -69.452 C -47.168 -57.452 -46.867 -42.519 -39.275 -29.063 C -21.345 2.716 1.538 4.259 2.503 4.309 C 3.296 4.35 4.073 4.075 4.664 3.545 C 5.495 2.801 6.633 1.781 6.376 -9.279 C 6.218 -16.105 5.501 -22.812 4.409 -27.678 C 2.937 -34.241 0.798 -37.729 -2.333 -38.663 C -2.421 -38.689 -2.508 -38.717 -2.596 -38.745 C -12.54 -41.996 -27.023 -62.882 -34.836 -74.147 C -36.849 -77.051 -38.588 -79.558 -39.913 -81.311 C -41.03 -82.788 -42.253 -84.404 -43.77 -84.9" style="fill: rgb(13, 13, 13); fill-opacity: 1;"/>
      </g>
    </g>
    <g style="clip-path: url(#clippath34);">
      <g transform="translate(231.6475 89.7607)">
        <path d="M 0 0 C -30.392 -5.591 -51.465 -7.825 -79.341 -2.846 C -81.559 -2.448 -82.821 -12.212 -79.948 -13.18 C -54.113 -21.88 -12.059 -14.191 1.266 -11.994 C 4.801 -11.411 2.407 0.443 0 0" style="fill: rgb(13, 13, 13); fill-opacity: 1;"/>
      </g>
    </g>
    <g style="clip-path: url(#clippath34);">
      <g transform="translate(232.1846 86.8057)">
        <path d="M 0 0 C 0.002 0 0.004 0 0.007 0.001 C 0.004 0 0.002 0 0 0 M 0.007 0.001 L 0.012 0.002 Z M -78.978 -7.559 C -55.045 -15.322 -16.463 -8.868 -1.869 -6.427 L -0.554 -6.208 C -0.286 -4.839 -0.718 -1.815 -1.372 -0.252 C -31.507 -5.741 -52.162 -7.674 -78.826 -3.124 C -79.176 -4.459 -79.272 -6.594 -78.978 -7.559 M 0.235 -6.076 L 0.239 -6.075 C 0.238 -6.075 0.237 -6.076 0.235 -6.076 M 1.885 -11.841 C 1.668 -11.911 1.446 -11.966 1.217 -12.003 L -0.877 -12.353 C -15.989 -14.88 -56.131 -21.596 -81.444 -13.072 C -85.573 -11.681 -85.623 -5.522 -84.649 -1.723 C -83.344 3.367 -80.263 3.23 -79.35 3.067 C -52.412 -1.746 -31.857 0.249 -1.081 5.91 C -0.408 6.033 1.318 6.129 2.818 4.345 C 4.929 1.835 6.349 -4.931 4.964 -8.679 C 4.378 -10.265 3.275 -11.386 1.885 -11.841" style="fill: rgb(13, 13, 13); fill-opacity: 1;"/>
      </g>
    </g>
    <g style="clip-path: url(#clippath34);">
      <g transform="translate(227.3184 122.0957)">
        <path d="M 0 0 C 0.16 0.089 0.276 0.24 0.322 0.417 C 0.368 0.594 0.341 0.782 0.244 0.937 C -2.799 5.597 -24.111 34.971 -54.096 -6.129 C -66.248 -22.784 -74.325 -42.201 -76.45 -55.521 C -77.427 -61.647 -43.479 -17.923 -28.221 -12.631 C -14.966 -8.035 -2.826 -1.549 0 0" style="fill: rgb(13, 13, 13); fill-opacity: 1;"/>
      </g>
    </g>
    <g style="clip-path: url(#clippath34);">
      <g transform="translate(227.3184 122.0957)">
        <path d="M 0 0 L 0.005 0.001 Z M -29.231 11.412 C -36.515 9.031 -44.034 2.566 -51.669 -7.899 C -60.717 -20.3 -68.118 -35.281 -71.713 -48.082 C -69.979 -46.274 -68.053 -44.217 -66.224 -42.265 C -54.73 -29.993 -38.99 -13.187 -29.205 -9.793 C -18.523 -6.089 -8.448 -1.063 -3.775 1.388 C -6.761 5.224 -13.423 12.212 -22.466 12.445 C -24.695 12.503 -26.952 12.157 -29.231 11.412 M -75.133 -58.941 C -75.962 -59.213 -76.794 -59.201 -77.651 -58.781 C -78.71 -58.263 -79.729 -57.01 -79.417 -55.049 C -77.021 -40.033 -68.035 -20.136 -56.523 -4.358 C -45.266 11.073 -33.753 18.747 -22.312 18.451 C -8.435 18.093 0.387 6.213 2.76 2.581 C 2.773 2.56 2.787 2.538 2.8 2.517 C 3.324 1.668 3.48 0.628 3.23 -0.338 C 2.981 -1.303 2.336 -2.138 1.461 -2.625 C 1.455 -2.628 1.449 -2.632 1.443 -2.635 C -1.924 -4.48 -13.945 -10.861 -27.236 -15.47 C -35.619 -18.376 -51.397 -35.224 -61.839 -46.372 C -65.146 -49.903 -68.001 -52.952 -70.19 -55.115 C -71.94 -56.845 -73.533 -58.419 -75.133 -58.941" style="fill: rgb(13, 13, 13); fill-opacity: 1;"/>
      </g>
    </g>
    <g style="clip-path: url(#clippath34);">
      <g transform="translate(210.4434 129.7969)">
        <path d="M 0 0 C 1.577 0.405 3.174 0.736 4.785 0.986 C 5.878 0.731 5.51 1.156 5.878 0.731 C 6.379 0.154 5.994 -0.668 4.784 -0.859 C -15.805 -4.192 -33.774 -20.378 -44.16 -38.402 C -45.08 -39.998 -48.744 -47.223 -49.938 -47.716 C -50.808 -48.075 -48.237 -42.367 -47.614 -41.087 C -42.923 -31.44 -35.957 -23.086 -28.043 -15.96 C -20.031 -8.746 -10.771 -2.904 -0.441 -0.116 C -0.295 -0.077 -0.147 -0.038 0 0" style="fill: rgb(13, 13, 13); fill-opacity: 1;"/>
      </g>
    </g>
    <g style="clip-path: url(#clippath34);">
      <g transform="translate(214.7461 131.9023)">
        <path d="M 0 0 C 0.002 0 0 0 0.002 0.001 C 0.002 0 0 0 0 0 M -53.326 -52.684 C -54.483 -53.063 -55.73 -52.755 -56.563 -51.869 C -57.758 -50.599 -58.224 -49.292 -54.618 -41.878 C -50.14 -32.67 -43.323 -23.907 -34.356 -15.833 C -25.168 -7.56 -15.472 -2.002 -5.527 0.679 L -5.054 0.803 C -5.053 0.803 -5.052 0.804 -5.051 0.804 C -3.393 1.229 -1.714 1.577 -0.058 1.837 C 1.134 2.072 2.742 1.865 3.844 0.596 C 4.771 -0.475 5.041 -1.891 4.565 -3.193 C 4.04 -4.634 2.689 -5.658 0.951 -5.933 C -20.202 -9.357 -37.104 -26.813 -45.86 -42.008 C -46.036 -42.313 -46.318 -42.837 -46.665 -43.48 C -50.313 -50.241 -51.514 -51.945 -53.093 -52.598 C -53.17 -52.63 -53.248 -52.658 -53.326 -52.684" style="fill: rgb(13, 13, 13); fill-opacity: 1;"/>
      </g>
    </g>
    <g style="clip-path: url(#clippath34);">
      <g transform="translate(262.417 116.5137)">
        <path d="M 0 0 C 1.252 -0.953 12.879 -11.271 8.922 -27.291 C 2.898 -51.676 -10.838 -58.787 -23.991 -66.244 C -34.11 -71.98 -81.415 -67.026 -79.074 -31.22 C -75.246 27.318 -9.698 7.389 0 0" style="fill: rgb(13, 13, 13); fill-opacity: 1;"/>
      </g>
    </g>
    <g style="clip-path: url(#clippath34);">
      <g transform="translate(210.1016 120.582)">
        <path d="M 0 0 C -1.34 -0.438 -2.652 -0.945 -3.938 -1.531 C -15.977 -7.012 -22.646 -18.436 -23.761 -35.484 C -24.506 -46.889 -19.913 -55.79 -10.108 -61.938 C 3.034 -70.182 21.715 -70.609 26.843 -67.698 L 28.042 -67.02 C 40.77 -59.824 52.79 -53.027 58.32 -30.639 C 62 -15.741 50.636 -6.566 50.495 -6.458 C 45.799 -2.881 20.243 6.617 0 0 M 27.391 -73.96 C 18.785 -76.773 0.492 -75.68 -13.301 -67.029 C -24.954 -59.72 -30.645 -48.677 -29.756 -35.093 C -28.485 -15.663 -20.638 -2.532 -6.428 3.938 C 5.834 9.522 19.975 8.659 29.675 6.952 C 40.886 4.979 50.467 1.117 54.136 -1.679 L 54.137 -1.679 C 58.239 -4.806 68.036 -16.361 64.154 -32.079 C 58.003 -56.983 43.656 -65.094 30.999 -72.25 L 29.806 -72.926 C 29.124 -73.313 28.312 -73.659 27.391 -73.96" style="fill: rgb(13, 13, 13); fill-opacity: 1;"/>
      </g>
    </g>
    <g>
      <path d="M 215.78 124.093 C 194.193 117.036 182.373 93.733 189.429 72.147 L 189.429 72.147 C 196.486 50.559 219.79 38.739 241.376 45.796 L 241.376 45.796 C 262.963 52.853 274.784 76.156 267.727 97.742 L 267.727 97.742 C 262.054 115.094 245.887 126.137 228.549 126.136 L 228.549 126.136 C 224.318 126.135 220.015 125.477 215.78 124.093" style="fill: none;"/>
    </g>
    <g style="clip-path: url(#clippath35);">
      <g transform="translate(205.0029 109.2393)">
        <path d="M 0 0 C -21.481 -8.305 -22.812 -42.174 0.437 -51.078 C 22.187 -59.408 35.438 -34.003 28.687 -15.842 C 23.454 -1.763 11.175 4.283 0 0 M -13.292 -19.061 C -10.389 -8.155 -0.342 2.271 13.6 -2.159 C 13.516 -2.183 5.851 -5.084 14.241 -11.601 C 18.776 -15.123 20.157 -18.687 20.15 -26.853 C 20.466 -30.775 20.562 -31.959 21.006 -35.958 C 14.358 -28.259 8.829 -21.66 3.249 -12.735 C 5.263 -11.733 7.544 -10.6 5.867 -9.641 C 5.656 -9.52 -5.123 -14.268 -5.224 -14.319 C -6.03 -14.745 -5.852 -15.801 -5.85 -15.812 C -5.679 -16.635 -5.537 -16.579 -3.172 -15.646 C -1.414 -18.866 -0.613 -20.336 2.597 -24.826 C 3.005 -29.92 3.425 -35.188 5.736 -42.805 C -2.643 -34.359 -6.969 -28.007 -10.224 -19.36 C -9.646 -18.687 -8.628 -18.544 -8.204 -17.684 C -7.915 -17.097 -8.032 -16.024 -8.612 -16.084 C -10.667 -16.298 -11.688 -18.138 -13.292 -19.061 M 23.688 -41.843 C 22.849 -32.321 21.678 -23.338 20.788 -13.818 C 20.616 -11.978 20.079 -9.202 18.504 -6.427 C 27.543 -13.817 31.529 -27.64 23.688 -41.843 M 7.021 -50.194 C -7.848 -48.543 -14.783 -35.373 -13.948 -23.217 C -10.311 -33.788 -4.627 -41.099 7.021 -50.194 M 15.019 -48.962 C 13.399 -49.61 12.022 -49.955 10.266 -50.151 C 8.153 -45.369 5.813 -39.297 4.786 -27.717 C 13.142 -37.957 20.935 -44.921 20.986 -44.956 C 20.271 -45.638 18.095 -47.711 15.019 -48.962" style="fill: rgb(13, 13, 13); fill-opacity: 1;"/>
      </g>
    </g>
    <g style="clip-path: url(#clippath35);">
      <g transform="translate(207.4307 104.3789)">
        <path d="M 0 0 C -0.913 -0.298 -1.806 -0.686 -2.677 -1.164 C -5.029 -2.453 -7.147 -4.374 -8.882 -6.722 C -8.061 -6.347 -4.752 -4.906 -3.336 -4.296 C -1.953 -3.7 -0.566 -3.109 0.488 -2.675 C 2.609 -1.802 3.578 -1.402 4.925 -2.168 L 4.966 -2.191 C 4.845 -1.455 4.855 -0.72 4.999 0.015 C 5.048 0.266 5.111 0.507 5.186 0.738 C 3.396 0.791 1.664 0.545 0 0 M 11.985 -0.19 C 12 -0.187 12.075 -0.17 12.197 -0.122 C 12.128 -0.147 12.058 -0.171 11.985 -0.19 M 12.204 -0.12 C 11.589 -0.369 10.927 -0.921 10.896 -1.142 C 10.866 -1.347 11.249 -2.498 13.656 -4.368 C 13.897 -4.555 14.131 -4.743 14.357 -4.932 C 14.116 -4.313 13.822 -3.681 13.464 -3.049 C 12.806 -1.891 12.994 -0.451 13.893 0.498 C 13.751 0.587 13.608 0.675 13.465 0.76 C 13.134 0.37 12.703 0.062 12.204 -0.12 M -10.509 -16.59 Z M -9 -15.557 C -7.228 -19.784 -5.078 -23.5 -2.107 -27.355 C -2.415 -25.117 -2.596 -23.053 -2.759 -21.032 C -4.902 -18.008 -5.947 -16.333 -7.013 -14.444 C -7.411 -14.53 -7.783 -14.564 -8.148 -14.534 C -8.404 -14.951 -8.701 -15.285 -9 -15.557 M 5.06 -8.918 C 8.177 -13.653 11.328 -17.775 14.719 -21.897 C 14.714 -14.063 13.312 -11.707 9.971 -9.113 C 8.744 -8.16 7.738 -7.203 6.954 -6.243 C 6.731 -7.375 6.008 -8.218 5.06 -8.918 M 3.183 -19.967 C 3.76 -20.132 4.288 -20.469 4.686 -20.957 C 10.111 -27.606 15.236 -32.792 18.116 -35.57 C 18.069 -35.06 18.021 -34.55 17.972 -34.04 C 17.339 -33.909 16.749 -33.575 16.305 -33.062 C 9.703 -25.416 4.187 -18.837 -1.392 -10 C -1.721 -10.143 -2.051 -10.285 -2.372 -10.425 C -1.003 -12.917 -0.117 -14.4 2.613 -18.218 C 2.93 -18.661 3.12 -19.183 3.163 -19.726 C 3.17 -19.806 3.177 -19.887 3.183 -19.967 M 9.666 -41.918 C 10.253 -41.765 10.831 -41.569 11.466 -41.316 C 12.419 -40.928 13.275 -40.437 14.007 -39.942 C 12.197 -38.2 9.664 -35.666 6.795 -32.549 C 7.631 -36.464 8.648 -39.42 9.666 -41.918 M 13.025 -49.821 C 8.084 -51.437 2.602 -51.193 -3.064 -49.023 C -14.717 -44.561 -21.969 -33.756 -21.989 -20.824 C -22.01 -7.866 -14.757 3.315 -3.511 7.663 C -3.509 7.664 -3.506 7.665 -3.503 7.666 C 2.269 9.874 8.537 9.707 14.132 7.178 C 20.783 4.173 26.09 -1.905 29.075 -9.935 C 33.369 -21.485 30.382 -35.911 21.974 -44.237 C 19.294 -46.89 16.276 -48.758 13.025 -49.821" style="fill: rgb(13, 13, 13); fill-opacity: 1;"/>
      </g>
    </g>
    <g style="clip-path: url(#clippath36);">
      <g transform="translate(247.7129 114.2578)">
        <path d="M 0 0 C 7.074 1.441 14.559 -5.933 16.703 -16.457 C 18.849 -26.981 14.846 -36.696 7.772 -38.138 C 0.699 -39.579 -6.785 -32.205 -8.93 -21.681 C -11.075 -11.157 -7.073 -1.442 0 0" style="fill: rgb(13, 13, 13); fill-opacity: 1;"/>
      </g>
    </g>
    <g style="clip-path: url(#clippath36);">
      <g transform="translate(247.6523 111.1387)">
        <path d="M 0 0 C -4.936 -1.613 -7.633 -9.588 -5.926 -17.962 C -5.006 -22.473 -2.994 -26.442 -0.258 -29.138 C 2.163 -31.522 4.823 -32.566 7.233 -32.075 C 12.583 -30.979 15.602 -22.679 13.82 -13.938 C 12.9 -9.427 10.888 -5.458 8.152 -2.763 C 5.731 -0.377 3.071 0.666 0.661 0.175 C 0.437 0.13 0.216 0.071 0 0 M 9.791 -37.603 C 9.35 -37.747 8.896 -37.867 8.434 -37.962 C 4.001 -38.865 -0.583 -37.252 -4.475 -33.417 C -8.052 -29.893 -10.658 -24.83 -11.813 -19.162 C -14.329 -6.818 -9.376 4.264 -0.539 6.062 C 3.894 6.966 8.478 5.352 12.369 1.518 C 15.946 -2.007 18.553 -7.069 19.707 -12.738 C 22.091 -24.434 17.77 -34.995 9.791 -37.603" style="fill: rgb(13, 13, 13); fill-opacity: 1;"/>
      </g>
    </g>
    <g style="clip-path: url(#clippath36);">
      <g transform="translate(239.4121 103.0635)">
        <path d="M 0 0 C 0.443 1.867 6.883 1.975 10.404 -7.213 C 14.616 -18.198 9.254 -25.082 7.52 -23.88 C 5.785 -22.678 -2.317 -9.758 0 0" style="fill: rgb(13, 13, 13); fill-opacity: 1;"/>
      </g>
    </g>
    <g style="clip-path: url(#clippath36);">
      <g transform="translate(239.4121 103.0635)">
        <path d="M 0 0 L 0.005 0.001 Z M 2.923 -0.694 L 2.923 -0.694 L 2.923 -0.695 Z M 2.671 -2.154 C 1.952 -8.564 5.799 -16.367 8.082 -19.844 C 8.988 -17.836 9.718 -13.814 7.6 -8.288 C 5.977 -4.055 3.854 -2.587 2.671 -2.154 M 9.358 -21.51 L 9.363 -21.508 Z M 9.268 -26.811 C 7.899 -27.258 6.649 -26.933 5.809 -26.349 C 3.204 -24.544 -5.545 -10.35 -2.923 0.694 C -2.482 2.551 -0.749 3.846 1.483 3.994 C 5.011 4.229 10.199 1.717 13.209 -6.138 C 17.065 -16.194 13.823 -23.615 10.874 -25.93 C 10.332 -26.355 9.791 -26.639 9.268 -26.811" style="fill: rgb(13, 13, 13); fill-opacity: 1;"/>
      </g>
    </g>
    <g style="clip-path: url(#clippath36);">
      <g transform="translate(262.917 70.2295)">
        <path d="M 0 0 C -0.255 3.224 3.395 10.138 10.677 9.848 C 17.089 9.593 25.026 -2.335 21.471 -0.724 C 17.883 0.903 21.643 -2.864 20.996 -5.3 C 19.738 -10.033 11 -11.677 6.195 -10.107 C 3.31 -9.166 0.512 -6.45 0 0" style="fill: rgb(13, 13, 13); fill-opacity: 1;"/>
      </g>
    </g>
    <g style="clip-path: url(#clippath36);">
      <g transform="translate(280.9854 65.5547)">
        <path d="M 0 0 Z M -15.073 4.913 C -14.741 0.729 -13.351 -1.79 -10.94 -2.578 C -8.37 -3.417 -4.256 -3 -1.771 -1.649 C -1.217 -1.349 -0.27 -0.734 -0.003 0.056 C -0.038 0.4 -0.351 1.154 -0.522 1.569 C -0.979 2.668 -1.815 4.687 -0.312 6.294 C -2.192 8.596 -5.269 11.432 -7.511 11.521 C -9.636 11.604 -11.465 10.865 -12.949 9.321 C -14.564 7.642 -15.13 5.621 -15.073 4.913 M -1.487 -8.028 C -5.124 -9.217 -9.513 -9.364 -12.806 -8.289 C -15.584 -7.381 -20.352 -4.521 -21.062 4.437 C -21.287 7.264 -19.767 10.899 -17.28 13.485 C -14.631 16.241 -11.077 17.677 -7.271 17.524 C -0.741 17.265 5.742 9.147 6.951 5.886 C 7.829 3.52 6.737 2.158 6.228 1.684 C 6.136 1.597 6.013 1.493 5.859 1.388 C 6.039 0.521 6.088 -0.429 5.831 -1.396 C 5.229 -3.66 3.593 -5.573 1.099 -6.929 C 0.305 -7.359 -0.567 -7.728 -1.487 -8.028" style="fill: rgb(13, 13, 13); fill-opacity: 1;"/>
      </g>
    </g>
    <g style="clip-path: url(#clippath36);">
      <g transform="translate(196.4336 139.7529)">
        <path d="M 0 0 C -0.313 2.241 -4.8 5.966 -10.192 5.298 C -16.656 4.497 -25.337 -1.338 -25.022 -7.097 C -24.113 -23.696 -15.909 -16.953 -16.654 -19.046 C -17.268 -20.771 -13.603 -22.855 -11.951 -22.75 C -5.491 -22.336 2.538 -18.175 0 0" style="fill: rgb(13, 13, 13); fill-opacity: 1;"/>
      </g>
    </g>
    <g style="clip-path: url(#clippath36);">
      <g transform="translate(193.458 139.3379)">
        <path d="M 0 0 C 0 -0.001 0.001 -0.002 0 -0.002 Z M 2.976 0.415 L 2.98 0.417 Z M -16.51 -17.625 L -16.51 -17.627 Z M -9.169 -19.337 C -9.166 -19.337 -9.164 -19.337 -9.162 -19.336 C -9.164 -19.337 -9.166 -19.337 -9.169 -19.337 M -9.091 -19.332 C -6.13 -19.125 -3.839 -18.052 -2.279 -16.14 C 0.243 -13.046 1.035 -7.496 0.012 -0.085 C -0.386 0.852 -3.242 3.179 -6.848 2.731 C -12.51 2.03 -19.235 -3.069 -19.047 -6.518 C -18.707 -12.721 -17.351 -14.503 -16.782 -14.98 C -16.341 -15.354 -15.863 -15.345 -14.951 -15.238 C -14.147 -15.146 -12.475 -14.951 -11.322 -16.399 C -11.062 -16.727 -10.572 -17.495 -10.631 -18.586 C -10.204 -18.913 -9.487 -19.273 -9.091 -19.332 M -4.356 -24.504 C -5.729 -24.953 -7.211 -25.232 -8.784 -25.333 C -11.038 -25.478 -14.212 -23.921 -15.714 -21.933 C -15.874 -21.72 -16.012 -21.509 -16.13 -21.301 C -17.441 -21.247 -19.102 -20.885 -20.654 -19.575 C -23.261 -17.379 -24.697 -13.215 -25.046 -6.846 C -25.483 1.143 -14.823 7.799 -7.586 8.694 C -1.001 9.51 5.361 5.053 5.95 0.831 C 7.247 -8.452 6.045 -15.438 2.377 -19.937 C 0.631 -22.078 -1.655 -23.621 -4.356 -24.504" style="fill: rgb(13, 13, 13); fill-opacity: 1;"/>
      </g>
    </g>
    <g style="clip-path: url(#clippath36);">
      <g transform="translate(228.1846 129.9541)">
        <path d="M 0 0 C 3.568 1.126 7.221 1.621 10.587 1.419 C 7.121 1.627 3.352 1.103 -0.314 -0.096 C -7.168 -2.336 -13.037 -6.686 -16.015 -11.731 C -18.321 -15.641 -17.775 -17.891 -16.91 -19.09 C -15.666 -20.818 -12.938 -21.523 -9.962 -20.885 C -9.693 -20.827 -9.407 -20.749 -9.111 -20.652 C -7.213 -20.031 -4.93 -18.681 -2.514 -17.25 C 0.436 -15.505 3.779 -13.526 7.133 -12.43 C 8.387 -12.02 9.547 -11.76 10.679 -11.632 C 15.478 -11.092 20.536 -10.605 25.449 -12.257 C 28.913 -13.421 33.25 -15.405 35.631 -18.623 C 38.764 -22.859 42.707 -33.816 39.685 -41.235 C 41.229 -41.449 42.589 -41.911 43.637 -42.622 C 40.936 -40.787 36.162 -40.591 31.477 -42.123 C 30.8 -42.344 30.131 -42.601 29.487 -42.885 C 25.815 -44.511 19.45 -48.603 18.067 -57.735 L 17.826 -59.324 C 17.991 -59.538 18.142 -59.745 18.271 -59.939 C 18.551 -60.348 18.819 -60.757 19.093 -61.191 L 19.146 -61.275 L 19.177 -61.328 C 19.437 -61.743 19.664 -62.122 19.873 -62.485 C 22.397 -66.886 22.931 -70.271 22.971 -74.31 C 22.971 -74.324 22.973 -74.34 22.977 -74.366 C 22.979 -74.387 23.045 -74.87 23.058 -75.607 C 23.061 -75.762 23.062 -75.928 23.058 -76.108 L 23.057 -76.146 C 23.052 -76.381 23.037 -76.649 23.012 -76.968 C 23.002 -77.096 22.991 -77.224 22.977 -77.356 C 22.969 -77.433 22.957 -77.512 22.947 -77.59 L 22.937 -77.665 C 22.915 -77.829 22.89 -77.995 22.86 -78.163 C 22.844 -78.261 22.825 -78.358 22.806 -78.459 C 22.764 -78.668 22.716 -78.879 22.661 -79.093 L 22.647 -79.148 C 22.646 -79.157 22.643 -79.166 22.641 -79.175 L 22.642 -79.175 L 23.787 -78.809 L 25.366 -78.297 L 25.467 -78.264 C 31.15 -76.406 39.771 -72.464 46.615 -62.804 C 59.643 -44.421 46.91 -28.677 53.328 -33.633 C 54.115 -34.241 52.866 -21.968 48.501 -11.698 C 46.071 -5.982 43.986 -2.188 41.233 1.585 C 38.853 4.845 35.974 8.089 31.94 12.542 C 29.926 14.768 31.348 13.461 29.273 15.428 C 28.582 16.083 27.878 16.714 27.165 17.318 L 26.897 17.545 L 26.897 17.534 C 22.777 20.983 18.588 23.404 13.927 25.025 C 13.922 25.028 13.916 25.03 13.909 25.032 C 13.508 25.172 13.103 25.308 12.692 25.436 C 12.141 25.612 11.582 25.781 11.013 25.934 C 11.012 25.934 11.011 25.935 11.009 25.935 C 11.008 25.935 11.006 25.936 11.005 25.936 C 4.62 27.591 3.737 28.638 -2.779 26.724 C -2.779 26.724 -3.005 26.289 -2.779 26.724 C 1.44 34.843 -7.588 25.818 -11.729 24.08 C -14.746 22.812 -12.95 24.505 -13.107 26.592 C -13.317 29.415 -22.283 20.37 -25.813 17.336 C -31.205 12.702 -38.271 2.363 -40.161 -5.147 C -41.214 -9.333 -40.899 -12.789 -39.25 -15.143 C -37.97 -16.972 -36.153 -17.764 -34.882 -17.895 C -34.571 -17.927 -34.229 -17.88 -33.835 -17.751 C -31.101 -16.856 -23.933 -11.088 -22.845 -5.331 C -19.65 -6.095 -16.463 -5.933 -13.096 -4.831 C -9.263 -3.578 -5.805 -1.289 -2.639 0.997 C -3.055 0.697 -3.478 0.396 -3.904 0.098" style="fill: rgb(13, 13, 13); fill-opacity: 1;"/>
      </g>
    </g>
    <g style="clip-path: url(#clippath36);">
      <g transform="translate(254.1348 56.0107)">
        <path d="M 0 0 C 0.003 -0.02 0.006 -0.043 0.01 -0.071 C 0.007 -0.05 0.004 -0.025 0 0 M 0.023 -0.245 C 0.023 -0.275 0.024 -0.307 0.024 -0.337 C 0.024 -0.315 0.024 -0.285 0.023 -0.245 M 0.023 -0.183 C 0.042 -0.355 0.067 -0.614 0.086 -0.943 C 7.572 1.814 13.665 6.457 18.215 12.876 C 25.771 23.54 23.808 33.177 22.863 37.808 C 22.379 40.187 21.921 42.434 24.023 43.743 C 24.137 43.813 24.249 43.876 24.362 43.931 C 23.851 47.83 22.469 54.759 19.786 61.069 C 17.447 66.571 15.505 70.128 12.856 73.757 C 10.508 76.974 7.606 80.226 3.764 84.469 C 2.895 85.429 2.596 85.805 2.364 86.107 L 2.319 86.166 C 2.219 86.278 1.593 86.872 1.256 87.19 C 0.608 87.805 -0.059 88.403 -0.728 88.97 L -0.824 89.052 C -0.877 89.091 -0.93 89.132 -0.98 89.175 C -4.848 92.411 -8.67 94.622 -13.01 96.132 C -13.022 96.136 -13.034 96.141 -13.047 96.145 C -13.413 96.271 -13.781 96.396 -14.154 96.512 C -14.769 96.708 -15.258 96.854 -15.71 96.974 L -15.742 96.982 C -16.87 97.275 -17.822 97.547 -18.662 97.786 C -22.217 98.801 -23.22 99.088 -27.119 98.003 C -28.006 97.391 -29.193 97.276 -30.215 97.809 C -30.599 98.008 -30.921 98.278 -31.175 98.596 C -33.027 97.262 -34.919 95.924 -36.515 95.253 C -37.607 94.796 -39.644 93.939 -41.316 95.382 C -41.566 95.598 -41.765 95.827 -41.92 96.065 C -43.655 94.61 -45.683 92.746 -46.926 91.603 C -48.054 90.565 -49.027 89.67 -49.806 89.001 C -54.697 84.796 -61.465 74.948 -63.198 68.063 C -64.02 64.796 -63.857 62.119 -62.74 60.525 C -62.065 59.561 -61.19 59.166 -60.68 59.062 C -58.812 59.714 -52.588 64.719 -51.747 69.171 C -51.594 69.979 -51.117 70.688 -50.428 71.134 C -49.737 71.581 -48.895 71.726 -48.096 71.534 C -45.457 70.903 -42.802 71.045 -39.979 71.968 C -37.027 72.933 -34.237 74.644 -31.63 76.465 C -31.612 76.478 -31.595 76.49 -31.576 76.503 C -31.194 76.77 -30.815 77.04 -30.441 77.309 C -30.411 77.331 -30.379 77.354 -30.349 77.376 C -29.095 78.282 -27.382 78.08 -26.367 76.964 C -22.606 78.093 -18.758 78.575 -15.184 78.361 C -13.527 78.262 -12.265 76.839 -12.364 75.183 C -12.464 73.527 -13.885 72.264 -15.543 72.363 C -15.614 72.368 -15.687 72.372 -15.758 72.375 C -15.762 72.376 -15.765 72.376 -15.768 72.376 L -15.772 72.376 C -18.697 72.52 -21.897 72.072 -25.045 71.078 C -25.101 71.062 -25.155 71.045 -25.211 71.031 C -25.251 71.018 -25.291 71.005 -25.332 70.992 C -31.51 68.972 -36.761 65.119 -39.377 60.686 C -40.701 58.442 -40.769 57.088 -40.424 56.609 C -39.986 56.002 -38.477 55.581 -36.542 55.996 C -36.378 56.031 -36.193 56.082 -35.995 56.146 C -34.405 56.666 -32.263 57.935 -29.995 59.278 C -26.904 61.106 -23.414 63.172 -19.751 64.369 C -18.302 64.843 -16.946 65.146 -15.606 65.297 C -11.002 65.814 -5.271 66.459 0.456 64.534 C 5.883 62.71 9.799 60.212 12.096 57.107 C 15.038 53.129 19.061 43.221 17.464 34.821 C 18.14 34.546 18.764 34.217 19.332 33.834 L 19.338 33.831 C 19.339 33.83 19.341 33.829 19.341 33.829 C 19.344 33.827 19.346 33.825 19.349 33.824 L 19.349 33.823 C 19.357 33.817 19.366 33.812 19.374 33.807 C 20.746 32.874 21.104 31.006 20.171 29.634 C 19.239 28.263 17.37 27.903 15.998 28.836 L 15.954 28.865 C 14.376 29.901 10.755 30.369 6.46 28.965 C 5.88 28.775 5.305 28.555 4.751 28.311 C 1.646 26.935 -3.744 23.473 -4.913 15.758 L -4.973 15.365 C -4.758 15.046 -4.538 14.707 -4.315 14.353 L -4.21 14.182 C -3.945 13.76 -3.698 13.349 -3.473 12.955 C -0.664 8.06 -0.034 4.151 0.023 -0.183 M 0.45 -7.177 L -2.395 -8.093 C -3.407 -8.417 -4.517 -8.181 -5.311 -7.473 C -6.104 -6.764 -6.463 -5.688 -6.256 -4.646 C -6.247 -4.604 -6.236 -4.555 -6.226 -4.51 C -6.224 -4.499 -6.22 -4.488 -6.218 -4.478 L -6.204 -4.422 C -6.158 -4.244 -6.122 -4.086 -6.092 -3.932 L -6.048 -3.694 C -6.027 -3.576 -6.008 -3.452 -5.992 -3.331 L -5.961 -3.099 C -5.948 -2.984 -5.94 -2.889 -5.934 -2.792 C -5.914 -2.537 -5.901 -2.324 -5.897 -2.138 C -5.894 -1.966 -5.894 -1.837 -5.896 -1.718 C -5.905 -1.18 -5.951 -0.829 -5.951 -0.825 C -5.964 -0.735 -5.984 -0.563 -5.983 -0.349 C -6.02 3.248 -6.474 6.111 -8.683 9.963 C -8.873 10.293 -9.081 10.64 -9.319 11.021 L -9.411 11.17 C -9.652 11.552 -9.9 11.931 -10.158 12.308 C -10.274 12.481 -10.384 12.63 -10.502 12.784 C -11.003 13.434 -11.217 14.259 -11.094 15.069 L -10.854 16.658 C -9.256 27.209 -1.914 31.931 2.32 33.806 C 3.06 34.132 3.823 34.425 4.593 34.676 C 6.957 35.449 9.33 35.838 11.545 35.853 C 12.767 42.024 9.632 50.335 7.266 53.534 C 5.736 55.601 2.721 57.435 -1.458 58.839 C -5.922 60.34 -10.92 59.777 -14.937 59.326 C -15.865 59.222 -16.829 59.004 -17.884 58.658 C -20.921 57.666 -24.11 55.778 -26.924 54.113 C -29.494 52.592 -31.912 51.16 -34.128 50.436 C -34.523 50.307 -34.911 50.2 -35.28 50.121 C -39.487 49.219 -43.325 50.359 -45.299 53.097 C -46.687 55.022 -47.684 58.433 -44.552 63.739 C -44.266 64.223 -43.958 64.7 -43.628 65.171 C -44.671 65.107 -45.707 65.126 -46.742 65.227 C -49.273 59.486 -55.631 54.39 -58.852 53.337 C -59.653 53.075 -60.401 52.984 -61.138 53.061 C -63.644 53.318 -66.081 54.82 -67.661 57.078 C -69.825 60.166 -70.297 64.472 -69.025 69.528 C -66.935 77.831 -59.425 88.656 -53.722 93.558 C -53.021 94.16 -52.035 95.066 -50.992 96.025 C -43.758 102.679 -40.98 104.912 -38.246 103.831 C -37.454 103.518 -36.838 102.949 -36.462 102.217 C -35.761 102.696 -35.03 103.223 -34.37 103.698 C -30.607 106.411 -28.121 108.203 -25.798 106.194 C -25.248 105.719 -24.922 105.18 -24.757 104.609 C -21.989 104.922 -20.057 104.433 -17.014 103.564 C -16.198 103.332 -15.275 103.068 -14.204 102.791 C -14.174 102.783 -14.144 102.774 -14.113 102.766 C -13.58 102.623 -13.016 102.456 -12.344 102.241 C -11.922 102.109 -11.487 101.963 -11.055 101.813 C -11.041 101.809 -11.027 101.804 -11.013 101.799 C -6.108 100.089 -1.62 97.513 2.7 93.928 C 2.764 93.882 2.827 93.833 2.888 93.781 L 3.155 93.556 C 3.91 92.916 4.661 92.242 5.39 91.551 C 6.584 90.419 6.778 90.226 7.138 89.757 C 7.252 89.607 7.442 89.357 8.217 88.502 C 12.185 84.121 15.188 80.754 17.71 77.299 C 20.612 73.321 22.816 69.301 25.315 63.42 C 27.829 57.509 29.172 51.413 29.749 48.306 C 31.379 39.527 30.371 38.749 29.305 37.925 C 29.208 37.851 29.109 37.783 29.007 37.722 C 30.079 32.146 31.478 21.201 23.116 9.402 C 17.505 1.484 9.879 -4.094 0.45 -7.177" style="fill: rgb(13, 13, 13); fill-opacity: 1;"/>
      </g>
    </g>
    <g style="clip-path: url(#clippath36);">
      <g transform="translate(246.9971 136.9287)">
        <path d="M 0 0 C -5.252 -0.229 -16.277 6.091 -15.391 17.896 C -14.61 28.289 5.227 40.491 2.403 34.812 C -0.444 29.081 5.893 34.968 9.813 33.778 C 17.433 31.466 19.604 17.187 16.779 9.478 C 15.084 4.848 10.513 0.461 0 0" style="fill: rgb(13, 13, 13); fill-opacity: 1;"/>
      </g>
    </g>
    <g style="clip-path: url(#clippath36);">
      <g transform="translate(246.8652 139.9307)">
        <path d="M 0 0 C 7.646 0.335 12.388 2.861 14.091 7.509 C 15.781 12.125 15.314 19.335 13.027 23.921 C 12.281 25.416 10.99 27.319 9.073 27.901 C 8.359 28.118 6.514 27.428 5.521 27.058 C 3.685 26.371 1.395 25.516 -0.296 27.392 C -0.632 27.765 -0.856 28.16 -0.996 28.565 C -5.312 25.705 -11.881 19.76 -12.263 14.669 C -12.638 9.689 -10.413 6.27 -8.482 4.276 C -5.501 1.201 -1.728 -0.076 0 0 M 8.756 -4.575 C 6.409 -5.342 3.608 -5.855 0.264 -6.003 C -3.839 -6.183 -9.087 -3.731 -12.797 0.095 C -15.585 2.972 -18.796 7.914 -18.254 15.119 C -17.551 24.481 -5.101 34.149 0.187 35.901 C 0.197 35.904 0.208 35.908 0.219 35.912 C 2.784 36.75 4.215 35.899 4.964 35.036 C 5.252 34.705 5.592 34.187 5.74 33.478 C 7.316 33.924 9.084 34.177 10.817 33.65 C 13.956 32.698 16.579 30.261 18.403 26.603 C 21.437 20.521 21.995 11.622 19.732 5.442 C 18.402 1.812 15.411 -2.399 8.756 -4.575" style="fill: rgb(13, 13, 13); fill-opacity: 1;"/>
      </g>
    </g>
    <g style="clip-path: url(#clippath36);">
      <g transform="translate(248.3955 140.9395)">
        <path d="M 0 0 C -1.551 -0.494 -10.034 4.897 -6.729 6.931 C -4.807 8.112 -12.062 8.089 -10.851 10.662 C -9.593 13.335 -7.783 16.09 -5.727 18.229 C -2.787 21.285 0.658 23.088 3.732 21.611 C 12.03 17.623 14.367 6.58 3.1 1.215 C 2.162 0.768 1.131 0.361 0 0" style="fill: rgb(13, 13, 13); fill-opacity: 1;"/>
      </g>
    </g>
    <g style="clip-path: url(#clippath36);">
      <g transform="translate(244.4092 146.3896)">
        <path d="M 0 0 C 0.926 -0.902 2.66 -2.037 3.643 -2.398 C 4.408 -2.134 5.13 -1.84 5.793 -1.523 C 9.629 0.303 11.743 2.959 11.749 5.957 C 11.754 8.951 9.661 11.894 6.417 13.453 C 4.353 14.444 1.54 11.855 0.426 10.697 C -0.92 9.298 -2.228 7.493 -3.297 5.582 C -3.23 5.561 -3.169 5.541 -3.112 5.524 C -1.759 5.1 0.288 4.459 0.563 2.249 C 0.607 1.898 0.648 0.936 0 0 M 3.074 -2.588 C 3.075 -2.588 3.075 -2.587 3.076 -2.587 C 3.075 -2.587 3.075 -2.588 3.074 -2.588 M 3.963 -2.494 Z M 5.105 -8.245 C 5.037 -8.268 4.969 -8.29 4.9 -8.312 L 4.899 -8.313 C 1.642 -9.351 -4.638 -4.828 -6.028 -1.795 C -6.354 -1.083 -6.507 -0.359 -6.496 0.337 C -7.764 0.846 -9.039 1.619 -9.669 3.054 C -10.146 4.14 -10.114 5.36 -9.582 6.492 C -8.116 9.605 -6.101 12.578 -3.905 14.861 C 0.428 19.367 5.018 20.791 9.02 18.869 C 14.337 16.312 17.767 11.24 17.758 5.946 C 17.747 0.586 14.328 -4.114 8.378 -6.948 C 7.367 -7.43 6.267 -7.866 5.105 -8.245" style="fill: rgb(13, 13, 13); fill-opacity: 1;"/>
      </g>
    </g>
    <g style="clip-path: url(#clippath36);">
      <g transform="translate(188.1182 110.5234)">
        <path d="M 0 0 C -1.747 -0.57 -3.773 -2.793 -4.714 -5.17 C -5.116 -6.188 -5.656 -8.142 -4.753 -9.789 C -3.721 -11.671 -2.016 -12.387 -0.073 -11.752 C 1.49 -11.241 2.965 -9.869 3.872 -8.082 C 4.908 -6.037 4.92 -3.751 3.902 -1.968 C 3.194 -0.728 2.076 0.058 0.909 0.133 C 0.628 0.15 0.323 0.106 0 0" style="fill: rgb(13, 13, 13); fill-opacity: 1;"/>
      </g>
    </g>
    <g style="clip-path: url(#clippath36);">
      <g transform="translate(189.0586 107.6709)">
        <path d="M 0 0 L 0.005 0.001 Z M -0.138 -0.055 C -0.878 -0.402 -2.212 -1.78 -2.861 -3.422 C -3.2 -4.28 -3.278 -5.094 -3.06 -5.493 C -2.634 -6.269 -2.346 -6.175 -1.946 -6.044 C -1.148 -5.783 -0.285 -4.93 0.253 -3.87 C 0.831 -2.729 0.868 -1.508 0.353 -0.604 C 0.171 -0.285 -0.022 -0.124 -0.138 -0.055 M -0.08 -11.755 C -3.376 -12.832 -6.612 -11.508 -8.327 -8.381 C -9.435 -6.362 -9.478 -3.816 -8.448 -1.213 C -7.171 2.015 -4.468 4.86 -1.874 5.708 C -1.188 5.933 -0.505 6.025 0.157 5.984 C 2.341 5.843 4.362 4.493 5.571 2.374 C 7.091 -0.29 7.105 -3.64 5.611 -6.588 C 4.332 -9.107 2.258 -10.99 -0.08 -11.755" style="fill: rgb(13, 13, 13); fill-opacity: 1;"/>
      </g>
    </g>
    <g style="clip-path: url(#clippath36);">
      <g transform="translate(257.0635 132.8887)">
        <path d="M 0 0 C 8.841 -6.508 2.879 -4.756 8.841 -6.508 C 10.272 -6.929 0.73 -8.545 2.17 -8.688 C 5.69 -9.04 8.596 -13.973 8.596 -13.973" style="fill: rgb(13, 13, 13); fill-opacity: 1;"/>
      </g>
    </g>
    <g style="clip-path: url(#clippath36);">
      <g transform="translate(266.5898 116.0596)">
        <path d="M 0 0 C -1.312 -0.429 -2.79 0.094 -3.52 1.332 C -4.423 2.847 -6.367 5.022 -7.655 5.15 C -9.498 5.335 -10.423 6.755 -10.503 7.997 C -10.596 9.433 -9.867 10.475 -8.337 11.103 C -10.779 13.137 -12.012 15.135 -12.096 15.273 C -12.955 16.693 -12.501 18.54 -11.081 19.399 C -9.667 20.255 -7.828 19.807 -6.965 18.4 C -6.899 18.297 -4.496 14.572 0.161 13.203 C 1.58 12.786 2.506 11.551 2.464 10.128 C 2.409 8.216 0.959 7.427 -0.247 7.015 C 0.757 5.852 1.416 4.792 1.658 4.382 C 2.5 2.952 2.023 1.11 0.594 0.269 C 0.401 0.155 0.203 0.066 0 0" style="fill: rgb(13, 13, 13); fill-opacity: 1;"/>
      </g>
    </g>
    <g style="clip-path: url(#clippath36);">
      <g transform="translate(207.5166 129.7754)">
        <path d="M 0 0 C 1.642 3.303 -1.007 6.924 -2.599 8.834 C -4.014 10.531 -6.266 11.02 -7.959 7.615 C -9.795 3.923 -9.561 0.268 -6.99 -1.973 C -3.746 -4.802 -0.919 -1.847 0 0" style="fill: rgb(13, 13, 13); fill-opacity: 1;"/>
      </g>
    </g>
    <g style="clip-path: url(#clippath36);">
      <g transform="translate(202.6143 136.6807)">
        <path d="M 0 0 C -0.103 -0.145 -0.228 -0.347 -0.367 -0.628 C -0.968 -1.837 -2.147 -4.841 -0.114 -6.614 C 0.051 -6.759 0.465 -7.089 0.723 -7.037 C 1.153 -6.95 1.873 -6.25 2.213 -5.566 C 2.805 -4.374 2.04 -2.45 0 0 M 2.664 -12.729 C 2.414 -12.811 2.157 -12.878 1.893 -12.931 C 0.442 -13.219 -1.769 -13.143 -4.062 -11.143 C -7.609 -8.05 -8.255 -2.995 -5.746 2.048 C -4.189 5.18 -2.124 6.041 -0.667 6.211 C 1.25 6.436 3.174 5.576 4.611 3.852 C 8.35 -0.634 9.353 -4.703 7.592 -8.243 L 7.592 -8.244 C 6.733 -9.968 5.02 -11.958 2.664 -12.729" style="fill: rgb(13, 13, 13); fill-opacity: 1;"/>
      </g>
    </g>
    <g style="clip-path: url(#clippath36);">
      <g transform="translate(193.2354 129.2959)">
        <path d="M 0 0 C 1.25 0.408 2.596 -0.273 3.004 -1.524 C 3.413 -2.774 2.73 -4.119 1.48 -4.528 C 0.229 -4.937 -1.115 -4.255 -1.523 -3.005 C -1.933 -1.754 -1.25 -0.409 0 0" style="fill: rgb(13, 13, 13); fill-opacity: 1;"/>
      </g>
    </g>
    <g style="clip-path: url(#clippath36);">
      <g transform="translate(193.7822 127.623)">
        <path d="M 0 0 C -0.326 -0.106 -0.505 -0.459 -0.398 -0.785 C -0.292 -1.111 0.061 -1.289 0.387 -1.183 C 0.713 -1.076 0.892 -0.724 0.785 -0.398 C 0.679 -0.072 0.326 0.106 0 0 M 1.867 -5.711 C -0.956 -6.634 -4.003 -5.088 -4.926 -2.265 C -5.849 0.558 -4.303 3.605 -1.48 4.528 C 1.342 5.451 4.39 3.905 5.312 1.082 C 6.235 -1.74 4.689 -4.788 1.867 -5.711" style="fill: rgb(13, 13, 13); fill-opacity: 1;"/>
      </g>
    </g>
    <g style="clip-path: url(#clippath36);">
      <g transform="translate(217.3389 144.1348)">
        <path d="M 0 0 C 1.25 0.409 2.596 -0.273 3.004 -1.523 C 3.413 -2.773 2.73 -4.119 1.48 -4.527 C 0.23 -4.937 -1.115 -4.254 -1.523 -3.004 C -1.933 -1.753 -1.25 -0.408 0 0" style="fill: rgb(13, 13, 13); fill-opacity: 1;"/>
      </g>
    </g>
    <g style="clip-path: url(#clippath36);">
      <g transform="translate(217.8857 142.4629)">
        <path d="M 0 0 C -0.326 -0.106 -0.505 -0.459 -0.398 -0.785 C -0.292 -1.111 0.061 -1.29 0.387 -1.184 C 0.713 -1.076 0.892 -0.725 0.785 -0.398 C 0.679 -0.072 0.326 0.106 0 0 M 1.867 -5.711 C -0.956 -6.634 -4.003 -5.088 -4.926 -2.266 C -5.849 0.558 -4.303 3.604 -1.48 4.527 C 1.343 5.45 4.39 3.905 5.312 1.082 C 6.235 -1.741 4.689 -4.788 1.867 -5.711" style="fill: rgb(13, 13, 13); fill-opacity: 1;"/>
      </g>
    </g>
    <g style="clip-path: url(#clippath36);">
      <g transform="translate(232.6816 75.7334)">
        <path d="M 0 0 C -0.787 -0.258 -1.47 -0.734 -2.027 -1.417 C -5.338 -5.475 -2.4 -10.163 0.442 -14.695 C 1.234 -15.961 2.054 -17.27 2.691 -18.51 C 3.499 -20.082 4.058 -22.012 4.598 -23.879 C 5.521 -27.078 6.476 -30.377 8.636 -31.466 C 9.678 -31.991 10.95 -31.996 12.523 -31.481 C 12.898 -31.359 13.276 -31.208 13.68 -31.021 C 13.765 -30.981 13.844 -30.94 13.924 -30.898 L 14.001 -30.858 C 14.27 -30.722 14.506 -30.588 14.724 -30.45 C 14.825 -30.387 14.927 -30.321 15.023 -30.255 C 15.254 -30.096 15.478 -29.925 15.69 -29.746 L 15.733 -29.711 C 15.782 -29.672 15.831 -29.633 15.876 -29.593 C 16.145 -29.353 16.392 -29.104 16.61 -28.854 C 16.636 -28.824 16.659 -28.795 16.683 -28.765 C 16.86 -28.556 17.042 -28.318 17.209 -28.074 C 17.249 -28.016 17.286 -27.957 17.324 -27.898 L 17.348 -27.862 C 17.479 -27.659 17.6 -27.452 17.709 -27.247 L 17.735 -27.198 C 17.764 -27.145 17.792 -27.092 17.818 -27.039 C 17.939 -26.798 18.048 -26.556 18.143 -26.318 C 18.154 -26.293 18.167 -26.264 18.178 -26.236 C 18.277 -25.978 18.367 -25.715 18.45 -25.432 C 18.463 -25.387 18.475 -25.342 18.486 -25.298 L 18.5 -25.247 C 18.553 -25.054 18.601 -24.862 18.641 -24.675 C 18.66 -24.584 18.678 -24.495 18.694 -24.407 C 18.724 -24.255 18.749 -24.104 18.771 -23.957 L 18.781 -23.89 C 18.792 -23.818 18.803 -23.747 18.812 -23.679 C 18.826 -23.558 18.838 -23.442 18.848 -23.327 C 18.875 -23.04 18.891 -22.797 18.898 -22.585 L 18.899 -22.553 C 18.904 -22.389 18.906 -22.239 18.905 -22.101 C 18.9 -21.436 18.845 -21 18.842 -20.981 C 18.839 -20.958 18.838 -20.944 18.838 -20.932 C 18.843 -17.289 18.383 -14.242 16.079 -10.302 C 15.89 -9.976 15.682 -9.637 15.444 -9.265 L 15.415 -9.218 L 15.367 -9.143 C 15.117 -8.754 14.871 -8.387 14.616 -8.022 C 12.447 -4.831 4.664 1.524 0 0" style="fill: rgb(13, 13, 13); fill-opacity: 1;"/>
      </g>
    </g>
    <g style="clip-path: url(#clippath36);">
      <g transform="translate(251.5195 54.8018)">
        <path d="M 0 0 L 0.005 0.002 Z M 0.007 -0.074 L 0.012 -0.073 Z M -3.408 -4.097 L -3.411 -4.103 Z M -3.411 -4.104 C -3.412 -4.104 -3.412 -4.105 -3.413 -4.106 C -3.412 -4.105 -3.412 -4.104 -3.411 -4.104 M -17.905 18.076 C -18.055 18.026 -18.284 17.926 -18.539 17.614 C -20.356 15.387 -18.735 12.434 -15.851 7.832 C -15.02 6.505 -14.169 5.146 -13.475 3.797 C -12.533 1.963 -11.934 -0.109 -11.354 -2.113 C -10.752 -4.2 -9.841 -7.352 -8.851 -7.852 C -8.471 -8.043 -7.567 -7.896 -6.421 -7.364 C -6.392 -7.351 -6.353 -7.328 -6.312 -7.308 L -6.223 -7.261 C -6.019 -7.157 -5.855 -7.065 -5.71 -6.974 C -5.653 -6.937 -5.584 -6.894 -5.518 -6.849 C -5.368 -6.745 -5.223 -6.635 -5.085 -6.519 C -5.068 -6.504 -5.052 -6.49 -5.034 -6.477 L -4.932 -6.394 C -4.795 -6.27 -4.645 -6.12 -4.514 -5.973 C -4.49 -5.943 -4.459 -5.905 -4.441 -5.885 C -4.331 -5.755 -4.215 -5.603 -4.106 -5.443 L -4.026 -5.32 C -3.932 -5.173 -3.851 -5.036 -3.779 -4.902 L -3.707 -4.765 C -3.624 -4.601 -3.551 -4.437 -3.486 -4.276 C -3.473 -4.241 -3.458 -4.208 -3.443 -4.174 C -3.388 -4.028 -3.327 -3.848 -3.271 -3.656 C -3.271 -3.653 -3.251 -3.58 -3.25 -3.577 C -3.246 -3.562 -3.241 -3.541 -3.236 -3.524 C -3.198 -3.384 -3.163 -3.245 -3.134 -3.107 L -3.094 -2.91 C -3.072 -2.796 -3.055 -2.688 -3.039 -2.583 L -3.007 -2.365 C -2.997 -2.29 -2.989 -2.205 -2.981 -2.119 C -2.961 -1.897 -2.948 -1.712 -2.942 -1.55 C -2.938 -1.403 -2.936 -1.289 -2.937 -1.183 C -2.939 -0.733 -2.975 -0.437 -2.976 -0.435 C -2.998 -0.258 -3.002 -0.154 -3.004 -0.062 C -3.005 -0.04 -3.005 -0.018 -3.005 0.004 C -3 3.223 -3.384 5.745 -5.353 9.114 C -5.525 9.412 -5.713 9.717 -5.926 10.051 L -6.001 10.169 C -6.226 10.519 -6.448 10.852 -6.681 11.184 C -8.751 14.229 -15.304 18.926 -17.904 18.076 Z M -5.381 -13.406 C -7.715 -14.169 -9.792 -14.105 -11.555 -13.217 C -14.886 -11.538 -16.076 -7.417 -17.127 -3.781 C -17.627 -2.053 -18.144 -0.265 -18.818 1.05 C -19.396 2.172 -20.179 3.423 -20.936 4.632 C -23.864 9.302 -27.867 15.687 -23.192 21.415 C -22.263 22.551 -21.113 23.349 -19.771 23.787 C -13.091 25.971 -4.047 17.997 -1.737 14.598 C -1.484 14.237 -1.216 13.838 -0.943 13.413 L -0.839 13.248 C -0.6 12.874 -0.371 12.5 -0.162 12.142 C 2.437 7.695 2.994 4.123 3.004 0.159 C 3.029 -0.09 3.067 -0.548 3.071 -1.146 C 3.072 -1.326 3.07 -1.512 3.064 -1.714 C 3.063 -1.724 3.063 -1.767 3.062 -1.776 C 3.054 -2.019 3.035 -2.319 3.002 -2.674 C 2.988 -2.817 2.974 -2.963 2.955 -3.114 C 2.941 -3.22 2.928 -3.314 2.913 -3.41 L 2.901 -3.487 C 2.876 -3.657 2.844 -3.851 2.807 -4.046 C 2.784 -4.159 2.763 -4.265 2.74 -4.371 C 2.688 -4.616 2.627 -4.86 2.56 -5.106 L -0.36 -4.398 L 2.541 -5.179 L 2.49 -5.36 C 2.39 -5.704 2.274 -6.045 2.143 -6.387 C 2.117 -6.449 2.096 -6.503 2.075 -6.55 C 1.954 -6.85 1.817 -7.153 1.667 -7.452 C 1.626 -7.535 1.581 -7.62 1.534 -7.706 L 1.532 -7.71 C 1.375 -8.005 1.212 -8.282 1.037 -8.555 C 1.032 -8.563 1.004 -8.606 0.999 -8.614 L 0.852 -8.838 C 0.633 -9.156 0.405 -9.456 0.172 -9.734 C 0.127 -9.791 0.081 -9.846 0.033 -9.901 C -0.263 -10.239 -0.597 -10.576 -0.958 -10.899 C -1.069 -10.997 -1.15 -11.063 -1.234 -11.13 C -1.515 -11.365 -1.81 -11.59 -2.112 -11.798 C -2.239 -11.885 -2.372 -11.972 -2.505 -12.056 C -2.813 -12.249 -3.124 -12.425 -3.469 -12.601 L -3.529 -12.633 C -3.635 -12.688 -3.755 -12.75 -3.881 -12.809 C -4.409 -13.054 -4.896 -13.247 -5.381 -13.406" style="fill: rgb(13, 13, 13); fill-opacity: 1;"/>
      </g>
    </g>
    <g style="clip-path: url(#clippath36);">
      <g transform="translate(183.7539 64.375)">
        <path d="M 0 0 C 1.806 0.591 3.884 0.505 6.01 -0.246 C 10.119 -1.699 19.953 -11.325 22.997 -14.738 C 24.021 -15.886 25.938 -18.976 25.338 -21.206 C 25.071 -22.198 24.336 -22.896 23.154 -23.283 C 22.661 -23.444 22.084 -23.553 21.438 -23.604 C 13.698 -24.228 -0.151 -16.4 -3.344 -10.823 C -4.692 -8.469 -4.986 -6.006 -4.171 -3.889 C -3.463 -2.052 -1.942 -0.635 0 0" style="fill: rgb(13, 13, 13); fill-opacity: 1;"/>
      </g>
    </g>
    <g style="clip-path: url(#clippath36);">
      <g transform="translate(184.6875 61.5195)">
        <path d="M 0 0 C -1.081 -0.354 -1.92 -1.123 -2.301 -2.113 C -2.785 -3.37 -2.562 -4.919 -1.671 -6.475 C 0.979 -11.102 13.877 -18.269 20.264 -17.754 C 21.08 -17.688 21.392 -17.544 21.52 -17.478 C 21.582 -16.808 20.793 -14.972 19.821 -13.884 C 16.119 -9.731 7.136 -1.305 4.074 -0.224 C 2.579 0.306 1.17 0.383 0 0 M 23.154 -23.283 C 22.437 -23.518 21.628 -23.672 20.746 -23.743 C 11.767 -24.466 -3.153 -15.979 -6.885 -9.46 C -8.691 -6.307 -9.055 -2.93 -7.907 0.047 C -6.874 2.729 -4.672 4.794 -1.867 5.711 C 0.574 6.51 3.321 6.416 6.077 5.442 C 11.512 3.521 22.508 -7.868 24.306 -9.884 C 25.764 -11.519 28.268 -15.556 27.306 -19.132 C 26.772 -21.107 25.299 -22.582 23.154 -23.283" style="fill: rgb(13, 13, 13); fill-opacity: 1;"/>
      </g>
    </g>
    <g style="clip-path: url(#clippath36);">
      <g transform="translate(209.3086 139.5439)">
        <path d="M 0 0 C -39.317 -31.848 -21.992 -1.142 -39.317 -31.848 C -49.085 -49.16 -46.16 -68.938 -47.61 -82.621 C -48.362 -89.725 -22.898 -42.17 -5.851 -37.093 C 1.161 -35.005 1.546 -1.387 0 0" style="fill: rgb(69, 148, 62); fill-opacity: 1;"/>
      </g>
    </g>
    <g style="clip-path: url(#clippath36);">
      <g transform="translate(208.5361 138.9482)">
        <path d="M 0 0 Z M -4.86 -1.673 C -12.413 -4.142 -26.146 -11.278 -37.688 -31.736 C -44.786 -44.316 -45.064 -58.092 -45.31 -70.245 C -45.384 -73.896 -45.454 -77.372 -45.714 -80.566 C -44.346 -78.854 -42.146 -75.684 -39.999 -72.588 C -31.267 -59.994 -16.636 -38.908 -5.358 -35.555 C -4.518 -35.294 -3.639 -34.215 -2.866 -32.417 C 0.683 -24.16 0.991 -4.208 0.148 -0.463 C -0.752 -0.587 -2.506 -0.903 -4.86 -1.673 M -46.247 -83.689 C -46.528 -83.781 -46.776 -83.755 -47.037 -83.657 C -47.459 -83.501 -47.938 -83.072 -47.815 -81.922 C -47.442 -78.395 -47.362 -74.417 -47.277 -70.206 C -47.027 -57.819 -46.744 -43.781 -39.402 -30.77 C -22.011 0.055 -0.199 1.529 0.722 1.578 C 0.981 1.592 1.235 1.502 1.429 1.328 C 3.244 -0.3 2.703 -18.358 0.551 -27.948 C -0.71 -33.57 -2.431 -36.668 -4.707 -37.412 C -4.737 -37.422 -4.767 -37.432 -4.797 -37.439 C -4.898 -37.471 -5 -37.502 -5.102 -37.535 C -15.7 -41 -29.879 -61.445 -38.383 -73.709 C -43.465 -81.037 -45.117 -83.32 -46.247 -83.689" style="fill: rgb(13, 13, 13); fill-opacity: 1;"/>
      </g>
    </g>
    <g style="clip-path: url(#clippath36);">
      <g transform="translate(231.6475 89.7607)">
        <path d="M 0 0 C -30.392 -5.591 -51.465 -7.825 -79.341 -2.846 C -81.559 -2.448 -82.821 -12.212 -79.948 -13.18 C -54.113 -21.88 -12.059 -14.191 1.266 -11.994 C 4.801 -11.411 2.407 0.443 0 0" style="fill: rgb(126, 78, 54); fill-opacity: 1;"/>
      </g>
    </g>
    <g style="clip-path: url(#clippath36);">
      <g transform="translate(231.8252 88.7939)">
        <path d="M 0 0 L 0.005 0.001 Z M -79.607 -2.862 C -80.154 -3.271 -81.006 -5.969 -80.773 -8.766 C -80.644 -10.323 -80.197 -11.151 -79.812 -11.281 C -55.444 -19.486 -16.019 -12.891 -1.176 -10.407 L 0.928 -10.058 C 1.355 -9.979 1.704 -9.269 1.835 -8.139 C 2.215 -4.852 0.757 -0.473 -0.071 -0.014 C -31.249 -5.746 -52.13 -7.759 -79.607 -2.862 M 1.624 -11.906 C 1.493 -11.949 1.367 -11.979 1.248 -11.998 L -0.852 -12.348 C -15.827 -14.854 -55.605 -21.509 -80.44 -13.146 C -83.066 -12.261 -83.122 -7.292 -82.332 -4.213 C -81.514 -1.021 -80.109 -0.774 -79.346 -0.91 C -52.104 -5.777 -31.371 -3.771 -0.355 1.935 C 0.138 2.025 0.883 1.946 1.631 1.057 C 3.337 -0.971 4.56 -6.904 3.428 -9.967 C 2.978 -11.186 2.254 -11.701 1.624 -11.906" style="fill: rgb(13, 13, 13); fill-opacity: 1;"/>
      </g>
    </g>
    <g style="clip-path: url(#clippath36);">
      <g transform="translate(227.3184 122.0957)">
        <path d="M 0 0 C 0.16 0.089 0.276 0.24 0.322 0.417 C 0.368 0.594 0.341 0.782 0.244 0.937 C -2.799 5.597 -24.111 34.971 -54.096 -6.129 C -66.248 -22.784 -74.325 -42.201 -76.45 -55.521 C -77.427 -61.647 -43.479 -17.923 -28.221 -12.631 C -14.966 -8.035 -2.826 -1.549 0 0" style="fill: rgb(105, 179, 79); fill-opacity: 1;"/>
      </g>
    </g>
    <g style="clip-path: url(#clippath36);">
      <g transform="translate(227.3184 122.0957)">
        <path d="M 0 0 L 0.005 0.001 Z M -29.839 13.337 C -37.55 10.815 -45.411 4.106 -53.302 -6.708 C -64.146 -21.571 -72.667 -40.123 -75.262 -54.406 C -73.182 -52.649 -68.908 -48.086 -64.75 -43.646 C -53.399 -31.527 -37.856 -14.932 -28.543 -11.702 C -15.706 -7.251 -3.743 -0.916 -0.776 0.697 C -2.658 3.494 -10.606 14.16 -22.414 14.465 C -24.869 14.528 -27.347 14.151 -29.839 13.337 M -75.745 -57.028 C -76.156 -57.163 -76.462 -57.114 -76.763 -56.967 C -77.018 -56.842 -77.592 -56.437 -77.421 -55.366 C -75.072 -40.643 -66.229 -21.089 -54.891 -5.549 C -44.047 9.314 -33.103 16.71 -22.363 16.432 C -9.47 16.099 -1.169 4.9 1.067 1.476 C 1.316 1.073 1.388 0.604 1.274 0.17 C 1.162 -0.265 0.872 -0.64 0.479 -0.859 C 0.477 -0.86 0.475 -0.861 0.473 -0.863 C -2.86 -2.689 -14.756 -9.004 -27.898 -13.561 C -36.753 -16.631 -52.736 -33.697 -63.313 -44.991 C -71.56 -53.796 -74.296 -56.555 -75.745 -57.028" style="fill: rgb(13, 13, 13); fill-opacity: 1;"/>
      </g>
    </g>
    <g style="clip-path: url(#clippath36);">
      <g transform="translate(210.4434 129.7969)">
        <path d="M 0 0 C 1.577 0.405 3.174 0.736 4.785 0.986 C 5.878 0.731 5.51 1.156 5.878 0.731 C 6.379 0.154 5.994 -0.668 4.784 -0.859 C -15.805 -4.192 -33.774 -20.378 -44.16 -38.402 C -45.08 -39.998 -48.744 -47.223 -49.938 -47.716 C -50.808 -48.075 -48.237 -42.367 -47.614 -41.087 C -42.923 -31.44 -35.957 -23.086 -28.043 -15.96 C -20.031 -8.746 -10.771 -2.904 -0.441 -0.116 C -0.295 -0.077 -0.147 -0.038 0 0" style="fill: rgb(186, 217, 111); fill-opacity: 1;"/>
      </g>
    </g>
    <g style="clip-path: url(#clippath36);">
      <g transform="translate(262.417 116.5137)">
        <path d="M 0 0 C 1.252 -0.953 12.879 -11.271 8.922 -27.291 C 2.898 -51.676 -10.838 -58.787 -23.991 -66.244 C -34.11 -71.98 -81.415 -67.026 -79.074 -31.22 C -75.246 27.318 -9.698 7.389 0 0" style="fill: rgb(184, 130, 85); fill-opacity: 1;"/>
      </g>
    </g>
    <g style="clip-path: url(#clippath36);">
      <g transform="translate(209.3066 122.4365)">
        <path d="M 0 0 C -1.358 -0.444 -2.688 -0.957 -3.98 -1.547 C -16.749 -7.36 -23.814 -19.358 -24.982 -37.207 C -25.976 -52.406 -17.594 -60.985 -10.387 -65.505 C 3.893 -74.462 23.27 -74.355 28.634 -71.311 L 29.832 -70.633 C 42.371 -63.543 55.339 -56.212 61.077 -32.978 C 65.07 -16.811 52.642 -6.802 52.514 -6.705 C 46.406 -2.053 20.09 6.567 0 0 M 27.458 -73.942 C 19.28 -76.615 1.428 -75.237 -11.432 -67.172 C -19.092 -62.367 -28.002 -53.247 -26.945 -37.078 C -25.727 -18.45 -18.275 -5.894 -4.796 0.244 C 17.353 10.331 47.578 -0.473 53.706 -5.141 L 53.707 -5.14 C 53.844 -5.244 67.281 -16.063 62.987 -33.449 C 57.045 -57.507 43.703 -65.051 30.8 -72.346 L 29.604 -73.022 C 28.995 -73.367 28.274 -73.675 27.458 -73.942" style="fill: rgb(13, 13, 13); fill-opacity: 1;"/>
      </g>
    </g>
    <g>
      <path d="M 215.78 124.093 C 194.193 117.036 182.373 93.733 189.429 72.147 L 189.429 72.147 C 196.486 50.559 219.79 38.739 241.376 45.796 L 241.376 45.796 C 262.963 52.853 274.784 76.156 267.727 97.742 L 267.727 97.742 C 262.054 115.094 245.887 126.137 228.549 126.136 L 228.549 126.136 C 224.318 126.135 220.015 125.477 215.78 124.093" style="fill: none;"/>
    </g>
    <g style="clip-path: url(#clippath37);">
      <g transform="translate(205.0029 109.2393)">
        <path d="M 0 0 C -21.481 -8.305 -22.812 -42.174 0.437 -51.078 C 22.187 -59.408 35.438 -34.003 28.687 -15.842 C 23.454 -1.763 11.175 4.283 0 0 M -13.292 -19.061 C -10.389 -8.155 -0.342 2.271 13.6 -2.159 C 13.516 -2.183 5.851 -5.084 14.241 -11.601 C 18.776 -15.123 20.157 -18.687 20.15 -26.853 C 20.466 -30.775 20.562 -31.959 21.006 -35.958 C 14.358 -28.259 8.829 -21.66 3.249 -12.735 C 5.263 -11.733 7.544 -10.6 5.867 -9.641 C 5.656 -9.52 -5.123 -14.268 -5.224 -14.319 C -6.03 -14.745 -5.852 -15.801 -5.85 -15.812 C -5.679 -16.635 -5.537 -16.579 -3.172 -15.646 C -1.414 -18.866 -0.613 -20.336 2.597 -24.826 C 3.005 -29.92 3.425 -35.188 5.736 -42.805 C -2.643 -34.359 -6.969 -28.007 -10.224 -19.36 C -9.646 -18.687 -8.628 -18.544 -8.204 -17.684 C -7.915 -17.097 -8.032 -16.024 -8.612 -16.084 C -10.667 -16.298 -11.688 -18.138 -13.292 -19.061 M 23.688 -41.843 C 22.849 -32.321 21.678 -23.338 20.788 -13.818 C 20.616 -11.978 20.079 -9.202 18.504 -6.427 C 27.543 -13.817 31.529 -27.64 23.688 -41.843 M 7.021 -50.194 C -7.848 -48.543 -14.783 -35.373 -13.948 -23.217 C -10.311 -33.788 -4.627 -41.099 7.021 -50.194 M 15.019 -48.962 C 13.399 -49.61 12.022 -49.955 10.266 -50.151 C 8.153 -45.369 5.813 -39.297 4.786 -27.717 C 13.142 -37.957 20.935 -44.921 20.986 -44.956 C 20.271 -45.638 18.095 -47.711 15.019 -48.962" style="fill: rgb(126, 78, 54); fill-opacity: 1;"/>
      </g>
    </g>
    <g style="clip-path: url(#clippath38);">
      <g transform="translate(247.7129 114.2578)">
        <path d="M 0 0 C 7.074 1.441 14.559 -5.933 16.703 -16.457 C 18.849 -26.981 14.846 -36.696 7.772 -38.138 C 0.699 -39.579 -6.785 -32.205 -8.93 -21.681 C -11.075 -11.157 -7.073 -1.442 0 0" style="fill: rgb(126, 78, 54); fill-opacity: 1;"/>
      </g>
    </g>
    <g style="clip-path: url(#clippath38);">
      <g transform="translate(247.0186 113.0576)">
        <path d="M 0 0 C -5.973 -1.952 -9.212 -10.765 -7.271 -20.284 C -6.273 -25.185 -4.061 -29.521 -1.042 -32.496 C 1.873 -35.368 5.181 -36.604 8.271 -35.974 C 14.803 -34.636 18.468 -25.437 16.434 -15.454 C 15.436 -10.553 13.223 -6.216 10.204 -3.242 C 7.289 -0.369 3.981 0.866 0.892 0.236 C 0.588 0.174 0.291 0.096 0 0 M 9.751 -37.613 C 9.396 -37.729 9.034 -37.825 8.664 -37.901 C 4.911 -38.666 0.974 -37.244 -2.423 -33.897 C -5.717 -30.651 -8.124 -25.957 -9.199 -20.677 C -11.451 -9.632 -7.091 0.619 0.498 2.164 C 4.25 2.929 8.188 1.507 11.585 -1.841 C 14.879 -5.086 17.286 -9.781 18.361 -15.061 C 20.503 -25.567 16.67 -35.352 9.751 -37.613" style="fill: rgb(13, 13, 13); fill-opacity: 1;"/>
      </g>
    </g>
    <g style="clip-path: url(#clippath38);">
      <g transform="translate(239.4121 103.0635)">
        <path d="M 0 0 C 0.443 1.867 6.883 1.975 10.404 -7.213 C 14.616 -18.198 9.254 -25.082 7.52 -23.88 C 5.785 -22.678 -2.317 -9.758 0 0" style="fill: rgb(13, 13, 13); fill-opacity: 1;"/>
      </g>
    </g>
    <g style="clip-path: url(#clippath38);">
      <g transform="translate(239.4121 103.0635)">
        <path d="M 0 0 L 0.005 0.001 Z M 8.017 -23.023 C 8.213 -22.971 8.748 -22.618 9.318 -21.753 C 11.031 -19.15 11.975 -14.057 9.485 -7.564 C 7.461 -2.283 4.416 -0.19 2.242 0.008 C 1.437 0.081 1.023 -0.143 0.954 -0.241 C -1.226 -9.46 6.467 -21.755 8.017 -23.023 M 8.643 -24.884 C 8.031 -25.083 7.44 -25.021 6.959 -24.688 C 4.661 -23.096 -3.338 -9.796 -0.957 0.228 L -0.957 0.227 C -0.722 1.218 0.266 1.888 1.617 1.979 C 4.459 2.167 8.706 -0.034 11.322 -6.86 C 14.79 -15.904 12.123 -22.381 9.627 -24.34 C 9.302 -24.595 8.97 -24.776 8.643 -24.884" style="fill: rgb(13, 13, 13); fill-opacity: 1;"/>
      </g>
    </g>
    <g style="clip-path: url(#clippath38);">
      <g transform="translate(262.917 70.2295)">
        <path d="M 0 0 C -0.255 3.224 3.395 10.138 10.677 9.848 C 17.089 9.593 25.026 -2.335 21.471 -0.724 C 17.883 0.903 21.643 -2.864 20.996 -5.3 C 19.738 -10.033 11 -11.677 6.195 -10.107 C 3.31 -9.166 0.512 -6.45 0 0" style="fill: rgb(113, 126, 134); fill-opacity: 1;"/>
      </g>
    </g>
    <g style="clip-path: url(#clippath38);">
      <g transform="translate(263.8984 70.3076)">
        <path d="M 0 0 C 0.396 -5.002 2.305 -8.201 5.52 -9.251 C 8.597 -10.256 13.322 -9.784 16.281 -8.178 C 17.333 -7.606 18.669 -6.613 19.064 -5.126 C 19.257 -4.4 18.779 -3.249 18.431 -2.409 C 17.994 -1.357 17.617 -0.449 18.311 0.222 C 18.761 0.657 19.356 0.638 19.968 0.457 C 18.546 2.982 13.767 8.623 9.656 8.787 C 6.26 8.923 3.989 7.329 2.682 5.969 C 0.768 3.979 -0.116 1.459 0 0 M 14.984 -10.855 C 11.755 -11.911 7.784 -12.061 4.909 -11.121 C 2.099 -10.203 -1.374 -7.556 -1.962 -0.156 C -2.14 2.093 -0.813 5.172 1.264 7.333 C 2.851 8.983 5.608 10.917 9.734 10.753 C 15.063 10.54 21.046 3.392 22.145 0.431 C 22.479 -0.472 22.409 -1.151 21.937 -1.592 C 21.65 -1.859 21.14 -2.096 20.303 -1.788 C 20.752 -2.874 21.314 -4.315 20.966 -5.631 C 20.511 -7.344 19.216 -8.822 17.221 -9.906 C 16.539 -10.276 15.784 -10.594 14.984 -10.855" style="fill: rgb(13, 13, 13); fill-opacity: 1;"/>
      </g>
    </g>
    <g style="clip-path: url(#clippath38);">
      <g transform="translate(196.4336 139.7529)">
        <path d="M 0 0 C -0.313 2.241 -4.8 5.966 -10.192 5.298 C -16.656 4.497 -25.337 -1.338 -25.022 -7.097 C -24.113 -23.696 -15.909 -16.953 -16.654 -19.046 C -17.268 -20.771 -13.603 -22.855 -11.951 -22.75 C -5.491 -22.336 2.538 -18.175 0 0" style="fill: rgb(113, 126, 134); fill-opacity: 1;"/>
      </g>
    </g>
    <g style="clip-path: url(#clippath38);">
      <g transform="translate(196.4336 139.7529)">
        <path d="M 0 0 L 0.005 0.002 Z M -13.076 3.632 C -18.646 1.812 -24.268 -2.874 -24.04 -7.043 C -23.763 -12.109 -22.731 -15.532 -21.061 -16.94 C -19.902 -17.917 -18.626 -17.769 -17.694 -17.661 C -17.024 -17.583 -16.332 -17.503 -15.879 -18.072 C -15.685 -18.315 -15.501 -18.74 -15.728 -19.376 C -15.77 -19.493 -15.687 -19.706 -15.507 -19.944 C -14.775 -20.914 -12.858 -21.822 -12.015 -21.768 C -8.433 -21.539 -5.632 -20.215 -3.688 -17.831 C -0.751 -14.229 0.162 -8.275 -0.975 -0.136 C -1.195 1.447 -5.062 4.942 -10.071 4.321 C -11.047 4.201 -12.062 3.964 -13.076 3.632 M -7.972 -23 C -9.183 -23.396 -10.493 -23.642 -11.889 -23.731 C -13.469 -23.833 -15.99 -22.568 -17.077 -21.13 C -17.492 -20.579 -17.662 -20.074 -17.699 -19.641 C -18.806 -19.762 -20.645 -19.864 -22.328 -18.445 C -24.485 -16.628 -25.687 -12.933 -26.004 -7.15 C -26.366 -0.535 -16.884 5.461 -10.313 6.274 C -4.464 6.999 0.566 3.05 0.975 0.137 C 2.189 -8.566 1.134 -15.03 -2.164 -19.075 C -3.66 -20.909 -5.631 -22.234 -7.972 -23" style="fill: rgb(13, 13, 13); fill-opacity: 1;"/>
      </g>
    </g>
    <g style="clip-path: url(#clippath38);">
      <g transform="translate(228.1846 129.9541)">
        <path d="M 0 0 C 3.568 1.126 7.221 1.621 10.587 1.419 C 7.121 1.627 3.352 1.103 -0.314 -0.096 C -7.168 -2.336 -13.037 -6.686 -16.015 -11.731 C -18.321 -15.641 -17.775 -17.891 -16.91 -19.09 C -15.666 -20.818 -12.938 -21.523 -9.962 -20.885 C -9.693 -20.827 -9.407 -20.749 -9.111 -20.652 C -7.213 -20.031 -4.93 -18.681 -2.514 -17.25 C 0.436 -15.505 3.779 -13.526 7.133 -12.43 C 8.387 -12.02 9.577 -11.923 10.679 -11.632 C 25.823 -7.642 33.25 -15.405 35.631 -18.623 C 38.764 -22.859 43.135 -34.28 40.112 -41.699 C 41.656 -41.913 42.788 -42.518 43.835 -43.229 C 41.134 -41.394 36.162 -40.591 31.477 -42.123 C 30.8 -42.344 30.131 -42.601 29.487 -42.885 C 25.815 -44.511 19.45 -48.603 18.067 -57.735 L 17.826 -59.324 C 17.991 -59.538 18.142 -59.745 18.271 -59.939 C 18.551 -60.348 18.819 -60.757 19.093 -61.191 L 19.146 -61.275 L 19.177 -61.328 C 19.437 -61.743 19.664 -62.122 19.873 -62.485 C 22.397 -66.886 22.931 -70.271 22.971 -74.31 C 22.971 -74.324 22.973 -74.34 22.977 -74.366 C 22.979 -74.387 23.045 -74.87 23.058 -75.607 C 23.061 -75.762 23.062 -75.928 23.058 -76.108 L 23.057 -76.146 C 23.052 -76.381 23.037 -76.649 23.012 -76.968 C 23.002 -77.096 22.991 -77.224 22.977 -77.356 C 22.969 -77.433 22.957 -77.512 22.947 -77.59 L 22.937 -77.665 C 22.915 -77.829 22.89 -77.995 22.86 -78.163 C 22.844 -78.261 22.825 -78.358 22.806 -78.459 C 22.764 -78.668 22.716 -78.879 22.661 -79.093 L 22.647 -79.148 C 22.646 -79.157 22.643 -79.166 22.641 -79.175 L 22.642 -79.175 L 23.787 -78.809 L 25.366 -78.297 L 25.467 -78.264 C 31.15 -76.406 39.771 -72.464 46.615 -62.804 C 59.643 -44.421 46.91 -28.677 53.328 -33.633 C 54.115 -34.241 52.866 -21.968 48.501 -11.698 C 46.071 -5.982 43.986 -2.188 41.233 1.585 C 38.853 4.845 35.974 8.089 31.94 12.542 C 29.926 14.768 31.348 13.461 29.273 15.428 C 28.582 16.083 27.878 16.714 27.165 17.318 L 26.897 17.545 L 26.897 17.534 C 22.777 20.983 18.588 23.404 13.927 25.025 C 13.922 25.028 13.916 25.03 13.909 25.032 C 13.508 25.172 13.103 25.308 12.692 25.436 C 12.141 25.612 11.582 25.781 11.013 25.934 C 11.012 25.934 11.011 25.935 11.009 25.935 C 11.008 25.935 11.006 25.936 11.005 25.936 C 4.62 27.591 3.737 28.638 -2.779 26.724 C -2.779 26.724 -3.005 26.289 -2.779 26.724 C 1.44 34.843 -7.588 25.818 -11.729 24.08 C -14.746 22.812 -12.95 24.505 -13.107 26.592 C -13.317 29.415 -22.283 20.37 -25.813 17.336 C -31.205 12.702 -38.271 2.363 -40.161 -5.147 C -41.214 -9.333 -40.899 -12.789 -39.25 -15.143 C -37.97 -16.972 -36.153 -17.764 -34.882 -17.895 C -34.571 -17.927 -34.229 -17.88 -33.835 -17.751 C -31.101 -16.856 -23.933 -11.088 -22.845 -5.331 C -19.65 -6.095 -16.463 -5.933 -13.096 -4.831 C -9.263 -3.578 -5.805 -1.289 -2.639 0.997 C -3.055 0.697 -3.478 0.396 -3.904 0.098" style="fill: rgb(160, 179, 181); fill-opacity: 1;"/>
      </g>
    </g>
    <g style="clip-path: url(#clippath38);">
      <g transform="translate(252.1113 52.2305)">
        <path d="M 0 0 L 1.232 0.399 C 9.829 3.21 16.776 8.287 21.882 15.491 C 29.943 26.867 27.862 37.082 26.861 41.99 C 26.42 44.156 26.198 45.244 27.112 45.813 C 27.581 46.104 28.08 46.046 28.611 45.796 C 28.388 49.188 26.925 57.968 23.664 65.639 C 21.292 71.22 19.218 75.011 16.508 78.726 C 14.101 82.021 11.165 85.313 7.281 89.603 C 6.396 90.58 6.15 90.9 5.988 91.111 C 5.832 91.315 5.8 91.358 4.666 92.434 C 3.991 93.073 3.296 93.697 2.599 94.288 L 2.431 94.43 C 2.397 94.451 2.366 94.475 2.336 94.5 C -1.668 97.852 -5.81 100.244 -10.324 101.815 C -10.338 101.82 -10.369 101.831 -10.383 101.837 C -10.734 101.958 -11.129 102.091 -11.529 102.216 C -12.164 102.419 -12.684 102.572 -13.168 102.701 C -13.176 102.703 -13.184 102.705 -13.19 102.708 C -14.305 102.996 -15.251 103.267 -16.086 103.505 C -19.905 104.595 -21.255 104.979 -26.06 103.604 C -26.353 103.268 -26.849 103.161 -27.262 103.377 C -27.502 103.501 -27.669 103.71 -27.746 103.948 C -27.825 104.191 -27.811 104.466 -27.684 104.711 L -27.583 104.903 C -27.25 105.545 -27.028 106.025 -26.883 106.382 C -27.775 105.852 -29.062 104.925 -30.012 104.239 C -31.872 102.898 -33.797 101.511 -35.272 100.892 C -36.354 100.438 -37.305 100.108 -37.977 100.688 C -38.61 101.234 -38.404 102.04 -38.239 102.688 C -38.158 103.002 -38.071 103.345 -38.032 103.697 C -39.777 102.833 -44.081 98.876 -46.267 96.866 C -47.381 95.841 -48.344 94.956 -49.096 94.31 C -54.227 89.899 -61.252 79.79 -63.129 72.334 C -64.109 68.437 -63.847 65.26 -62.367 63.148 C -61.277 61.592 -59.762 60.921 -58.707 60.813 C -58.54 60.796 -58.325 60.829 -58.069 60.913 C -55.572 61.729 -48.747 67.264 -47.743 72.577 C -47.693 72.843 -47.536 73.076 -47.309 73.224 C -47.082 73.369 -46.805 73.418 -46.541 73.354 C -43.53 72.634 -40.517 72.79 -37.329 73.832 C -34.131 74.878 -31.174 76.691 -28.429 78.609 C -28.419 78.617 -28.408 78.625 -28.397 78.632 C -27.976 78.928 -27.557 79.226 -27.145 79.522 C -26.701 79.844 -26.084 79.743 -25.764 79.3 C -25.509 78.947 -25.521 78.482 -25.761 78.146 C -25.36 78.294 -24.956 78.435 -24.549 78.567 C -20.765 79.805 -16.868 80.345 -13.28 80.13 C -12.735 80.098 -12.319 79.629 -12.353 79.084 C -12.385 78.539 -12.852 78.121 -13.398 78.155 C -16.63 78.349 -20.167 77.873 -23.629 76.78 C -23.661 76.77 -23.694 76.761 -23.728 76.755 C -30.457 74.595 -36.201 70.384 -39.09 65.49 C -40.7 62.76 -41.027 60.589 -40.035 59.212 C -39.035 57.823 -36.648 57.258 -34.096 57.806 C -33.862 57.855 -33.609 57.925 -33.345 58.012 C -31.546 58.6 -29.311 59.923 -26.944 61.324 C -23.944 63.1 -20.555 65.105 -17.101 66.234 C -16.301 66.496 -15.553 66.635 -14.829 66.769 C -14.36 66.855 -13.917 66.938 -13.5 67.048 C 2.025 71.139 9.854 63.264 12.499 59.688 C 15.493 55.642 19.944 44.719 17.496 36.76 C 18.728 36.413 19.676 35.848 20.464 35.313 C 20.915 35.006 21.033 34.392 20.727 33.939 C 20.42 33.487 19.805 33.37 19.353 33.677 C 19.35 33.679 19.347 33.681 19.343 33.684 C 18.512 34.246 17.373 34.731 16.037 35.047 C 15.987 35.054 15.939 35.065 15.893 35.08 C 13.6 35.593 10.747 35.605 7.856 34.661 C 7.213 34.45 6.575 34.206 5.96 33.935 C 2.475 32.391 -3.569 28.507 -4.882 19.84 L -5.061 18.661 C -4.979 18.548 -4.902 18.437 -4.832 18.331 C -4.553 17.924 -4.277 17.504 -3.997 17.059 L -3.906 16.912 C -3.644 16.494 -3.41 16.104 -3.196 15.73 C -0.572 11.158 -0.013 7.644 0.032 3.466 C 0.053 3.308 0.108 2.821 0.12 2.133 C 0.123 1.969 0.123 1.79 0.12 1.596 C 0.113 1.306 0.098 1.019 0.071 0.679 C 0.061 0.541 0.049 0.403 0.033 0.259 C 0.024 0.178 0.012 0.089 0 0 M 1.848 -1.48 L -0.984 -2.394 C -1.318 -2.5 -1.684 -2.423 -1.944 -2.188 C -2.206 -1.956 -2.324 -1.602 -2.256 -1.258 C -2.252 -1.24 -2.245 -1.208 -2.24 -1.19 L -2.226 -1.13 C -2.174 -0.928 -2.13 -0.733 -2.092 -0.543 C -2.072 -0.448 -2.056 -0.357 -2.04 -0.267 C -2.014 -0.114 -1.99 0.038 -1.971 0.187 L -1.96 0.268 C -1.95 0.338 -1.94 0.405 -1.934 0.471 C -1.92 0.598 -1.91 0.715 -1.9 0.833 C -1.878 1.13 -1.863 1.38 -1.858 1.6 C -1.854 1.802 -1.854 1.956 -1.857 2.099 C -1.869 2.764 -1.928 3.205 -1.931 3.224 C -1.943 3.313 -1.945 3.367 -1.945 3.419 C -1.983 7.281 -2.493 10.531 -4.911 14.745 C -5.114 15.099 -5.335 15.467 -5.588 15.871 L -5.675 16.012 C -5.937 16.429 -6.199 16.827 -6.472 17.226 C -6.597 17.413 -6.733 17.602 -6.884 17.796 C -7.048 18.009 -7.118 18.281 -7.078 18.548 L -6.838 20.137 C -5.384 29.735 1.303 34.035 5.16 35.743 C 5.836 36.042 6.536 36.311 7.242 36.541 C 9.908 37.413 12.885 37.598 15.546 37.154 C 17.816 44.133 13.894 54.479 10.909 58.513 C 8.504 61.764 1.359 68.918 -12.996 65.135 C -13.484 65.007 -13.985 64.914 -14.469 64.824 C -15.129 64.701 -15.811 64.575 -16.486 64.354 C -19.734 63.293 -23.024 61.346 -25.927 59.628 C -28.398 58.164 -30.725 56.787 -32.73 56.132 C -33.061 56.024 -33.38 55.937 -33.681 55.872 C -37.041 55.151 -40.165 56.008 -41.64 58.056 C -42.677 59.494 -43.372 62.126 -40.793 66.495 C -39.58 68.55 -37.911 70.492 -35.904 72.233 C -36.173 72.135 -36.442 72.041 -36.715 71.952 C -39.922 70.904 -42.982 70.664 -46.037 71.227 C -47.754 65.379 -54.629 59.957 -57.454 59.033 C -57.982 58.86 -58.458 58.799 -58.909 58.845 C -60.399 58.999 -62.516 59.912 -63.987 62.014 C -65.806 64.609 -66.173 68.345 -65.047 72.817 C -63.08 80.632 -55.741 91.206 -50.385 95.81 C -49.658 96.435 -48.706 97.31 -47.605 98.322 C -41.084 104.319 -38.495 106.343 -36.963 105.737 C -36.711 105.637 -36.116 105.306 -36.048 104.389 C -35.998 103.736 -36.099 103.139 -36.213 102.643 C -36.158 102.665 -36.1 102.689 -36.038 102.715 C -34.77 103.248 -32.856 104.627 -31.168 105.844 C -27.973 108.148 -26.213 109.417 -25.093 108.45 C -24.481 107.922 -24.5 107.101 -24.926 105.948 C -20.835 106.917 -19.091 106.419 -15.543 105.407 C -14.715 105.171 -13.777 104.902 -12.68 104.618 C -12.664 104.614 -12.648 104.61 -12.633 104.605 C -12.124 104.47 -11.583 104.309 -10.934 104.102 C -10.52 103.972 -10.104 103.833 -9.692 103.689 C -9.679 103.685 -9.647 103.674 -9.634 103.668 C -4.967 102.045 -0.654 99.564 3.506 96.101 C 3.542 96.077 3.576 96.052 3.609 96.023 L 3.877 95.797 C 4.603 95.183 5.325 94.534 6.027 93.869 C 7.206 92.751 7.308 92.643 7.56 92.313 C 7.693 92.139 7.917 91.847 8.747 90.93 C 12.673 86.596 15.642 83.267 18.105 79.892 C 20.911 76.047 23.049 72.142 25.484 66.412 C 27.923 60.678 29.229 54.744 29.791 51.718 C 31.196 44.149 30.426 43.554 30.096 43.3 C 29.711 43.002 29.188 43.006 28.797 43.308 C 28.722 43.366 28.651 43.419 28.585 43.468 C 28.648 43.127 28.727 42.746 28.8 42.386 C 29.773 37.608 32.053 26.423 23.496 14.348 C 18.14 6.79 10.856 1.465 1.848 -1.48" style="fill: rgb(13, 13, 13); fill-opacity: 1;"/>
      </g>
    </g>
    <g style="clip-path: url(#clippath38);">
      <g transform="translate(246.9971 136.9287)">
        <path d="M 0 0 C -5.252 -0.229 -16.277 6.091 -15.391 17.896 C -14.61 28.289 5.227 40.491 2.403 34.812 C -0.444 29.081 5.893 34.968 9.813 33.778 C 17.433 31.466 19.604 17.187 16.779 9.478 C 15.084 4.848 10.513 0.461 0 0" style="fill: rgb(113, 126, 134); fill-opacity: 1;"/>
      </g>
    </g>
    <g style="clip-path: url(#clippath38);">
      <g transform="translate(246.9541 137.9121)">
        <path d="M 0 0 C 8.42 0.369 13.917 3.423 15.899 8.832 C 17.758 13.907 17.251 21.818 14.746 26.842 C 13.824 28.691 12.178 31.062 9.571 31.854 C 8.203 32.268 6.274 31.549 4.726 30.969 C 3.075 30.352 1.886 29.908 1.116 30.763 C 0.434 31.521 0.765 32.64 1.531 34.195 C 0.438 33.868 -1.896 32.688 -4.886 30.314 C -6.998 28.638 -13.926 22.71 -14.367 16.839 C -14.797 11.111 -12.241 7.179 -10.022 4.889 C -6.77 1.533 -2.519 -0.11 0 0 M 7.994 -0.642 C 5.825 -1.351 3.219 -1.828 0.086 -1.966 C -2.78 -2.091 -7.608 -0.428 -11.435 3.52 C -13.935 6.1 -16.813 10.529 -16.328 16.986 C -15.698 25.372 -4.025 34.425 0.732 36.002 C 1.187 36.147 2.582 36.614 3.35 35.729 C 3.831 35.175 3.823 34.388 3.327 33.391 C 3.114 32.961 2.976 32.64 2.885 32.401 C 3.239 32.514 3.678 32.678 4.036 32.812 C 5.769 33.459 8.138 34.344 10.142 33.735 C 12.735 32.948 14.937 30.868 16.507 27.72 C 19.269 22.18 19.802 13.77 17.746 8.155 C 16.583 4.98 13.936 1.301 7.994 -0.642" style="fill: rgb(13, 13, 13); fill-opacity: 1;"/>
      </g>
    </g>
    <g style="clip-path: url(#clippath38);">
      <g transform="translate(248.3955 140.9395)">
        <path d="M 0 0 C -1.551 -0.494 -10.034 4.897 -6.729 6.931 C -4.807 8.112 -12.062 8.089 -10.851 10.662 C -9.593 13.335 -7.783 16.09 -5.727 18.229 C -2.787 21.285 0.658 23.088 3.732 21.611 C 12.03 17.623 14.367 6.58 3.1 1.215 C 2.162 0.768 1.131 0.361 0 0" style="fill: rgb(213, 227, 231); fill-opacity: 1;"/>
      </g>
    </g>
    <g style="clip-path: url(#clippath38);">
      <g transform="translate(248.1396 141.8906)">
        <path d="M 0 0 C 1.044 0.335 2.036 0.724 2.933 1.151 C 7.509 3.33 10.032 6.634 10.039 10.452 C 10.046 14.221 7.504 17.879 3.562 19.773 C 0.426 21.28 -2.998 18.429 -4.761 16.597 C -6.663 14.618 -8.419 12.024 -9.704 9.292 C -9.749 9.196 -9.748 9.154 -9.748 9.154 C -9.627 8.777 -8.043 8.281 -7.446 8.095 C -6.24 7.717 -5.286 7.418 -5.172 6.499 C -5.126 6.128 -5.225 5.592 -5.958 5.141 C -6.287 4.938 -6.286 4.805 -6.205 4.548 C -5.624 2.719 -1.108 -0.028 0 0 M 0.022 0.001 Z M 0.747 -1.826 C 0.684 -1.847 0.619 -1.867 0.556 -1.888 L 0.555 -1.889 C -1.3 -2.479 -6.767 1.025 -7.922 3.546 C -8.364 4.51 -8.296 5.424 -7.761 6.131 C -7.855 6.161 -7.948 6.19 -8.035 6.217 C -9.433 6.655 -11.017 7.15 -11.549 8.364 C -11.718 8.749 -11.844 9.367 -11.484 10.13 C -10.109 13.051 -8.226 15.831 -6.179 17.96 C -2.5 21.787 1.263 23.061 4.414 21.546 C 9.034 19.326 12.015 14.97 12.006 10.449 C 11.998 5.897 8.999 1.861 3.779 -0.625 C 2.846 -1.069 1.826 -1.474 0.747 -1.826" style="fill: rgb(13, 13, 13); fill-opacity: 1;"/>
      </g>
    </g>
    <g style="clip-path: url(#clippath38);">
      <g transform="translate(188.1182 110.5234)">
        <path d="M 0 0 C -1.747 -0.57 -3.773 -2.793 -4.714 -5.17 C -5.116 -6.188 -5.656 -8.142 -4.753 -9.789 C -3.721 -11.671 -2.016 -12.387 -0.073 -11.752 C 1.49 -11.241 2.965 -9.869 3.872 -8.082 C 4.908 -6.037 4.92 -3.751 3.902 -1.968 C 3.194 -0.728 2.076 0.058 0.909 0.133 C 0.628 0.15 0.323 0.106 0 0" style="fill: rgb(170, 185, 187); fill-opacity: 1;"/>
      </g>
    </g>
    <g style="clip-path: url(#clippath38);">
      <g transform="translate(188.4258 109.584)">
        <path d="M 0 0 C -1.472 -0.48 -3.273 -2.499 -4.102 -4.594 C -4.44 -5.45 -4.902 -7.081 -4.193 -8.375 C -3.633 -9.397 -2.569 -10.487 -0.687 -9.873 C 0.632 -9.441 1.892 -8.254 2.682 -6.695 C 3.568 -4.948 3.588 -3.013 2.735 -1.519 C 2.193 -0.567 1.372 0.031 0.538 0.086 C 0.385 0.096 0.203 0.066 0 0 M -0.073 -11.753 C -2.476 -12.538 -4.664 -11.631 -5.928 -9.325 C -7.025 -7.323 -6.407 -5.046 -5.941 -3.866 C -4.887 -1.201 -2.646 1.216 -0.615 1.88 C -0.173 2.024 0.258 2.085 0.663 2.06 C 2.165 1.963 3.581 0.991 4.454 -0.538 C 5.637 -2.611 5.634 -5.248 4.446 -7.59 C 3.423 -9.605 1.733 -11.162 -0.073 -11.753" style="fill: rgb(13, 13, 13); fill-opacity: 1;"/>
      </g>
    </g>
    <g style="clip-path: url(#clippath38);">
      <g transform="translate(265.627 125.4365)">
        <path d="M 0 0 L 0.005 0.002 Z M 0.337 -7.455 C -0.092 -7.596 -0.576 -7.425 -0.815 -7.021 C -1.556 -5.768 -4.02 -2.462 -6.491 -2.216 C -7.44 -2.121 -7.518 -1.339 -7.523 -1.25 C -7.585 -0.292 -7.104 -0.18 -3.968 0.549 C -3.518 0.653 -2.959 0.783 -2.408 0.917 C -7.036 3.102 -9.296 6.764 -9.404 6.943 C -9.686 7.407 -9.537 8.013 -9.072 8.294 C -8.609 8.575 -8.004 8.427 -7.723 7.963 C -7.695 7.919 -4.945 3.504 0.555 1.888 C 1.201 1.698 1.419 1.206 1.407 0.809 C 1.379 -0.19 0.612 -0.406 -3.437 -1.348 C -0.934 -2.982 0.784 -5.858 0.88 -6.021 C 1.155 -6.488 0.999 -7.091 0.531 -7.367 C 0.469 -7.404 0.403 -7.434 0.337 -7.455" style="fill: rgb(13, 13, 13); fill-opacity: 1;"/>
      </g>
    </g>
    <g style="clip-path: url(#clippath38);">
      <g transform="translate(207.5166 129.7754)">
        <path d="M 0 0 C 1.642 3.303 -1.007 6.924 -2.599 8.834 C -4.014 10.531 -6.266 11.02 -7.959 7.615 C -9.795 3.923 -9.561 0.268 -6.99 -1.973 C -3.746 -4.802 -0.919 -1.847 0 0" style="fill: rgb(13, 13, 13); fill-opacity: 1;"/>
      </g>
    </g>
    <g style="clip-path: url(#clippath38);">
      <g transform="translate(193.2354 129.2959)">
        <path d="M 0 0 C 1.25 0.408 2.596 -0.273 3.004 -1.524 C 3.413 -2.774 2.73 -4.119 1.48 -4.528 C 0.229 -4.937 -1.115 -4.255 -1.523 -3.005 C -1.933 -1.754 -1.25 -0.409 0 0" style="fill: rgb(13, 13, 13); fill-opacity: 1;"/>
      </g>
    </g>
    <g style="clip-path: url(#clippath38);">
      <g transform="translate(217.3389 144.1348)">
        <path d="M 0 0 C 1.25 0.409 2.596 -0.273 3.004 -1.523 C 3.413 -2.773 2.73 -4.119 1.48 -4.527 C 0.23 -4.937 -1.115 -4.254 -1.523 -3.004 C -1.933 -1.753 -1.25 -0.408 0 0" style="fill: rgb(13, 13, 13); fill-opacity: 1;"/>
      </g>
    </g>
    <g style="clip-path: url(#clippath38);">
      <g transform="translate(232.6816 75.7334)">
        <path d="M 0 0 C -0.787 -0.258 -1.47 -0.734 -2.027 -1.417 C -5.338 -5.475 -2.4 -10.163 0.442 -14.695 C 1.234 -15.961 2.054 -17.27 2.691 -18.51 C 3.499 -20.082 4.058 -22.012 4.598 -23.879 C 5.521 -27.078 6.476 -30.377 8.636 -31.466 C 9.678 -31.991 10.95 -31.996 12.523 -31.481 C 12.898 -31.359 13.276 -31.208 13.68 -31.021 C 13.765 -30.981 13.844 -30.94 13.924 -30.898 L 14.001 -30.858 C 14.27 -30.722 14.506 -30.588 14.724 -30.45 C 14.825 -30.387 14.927 -30.321 15.023 -30.255 C 15.254 -30.096 15.478 -29.925 15.69 -29.746 L 15.733 -29.711 C 15.782 -29.672 15.831 -29.633 15.876 -29.593 C 16.145 -29.353 16.392 -29.104 16.61 -28.854 C 16.636 -28.824 16.659 -28.795 16.683 -28.765 C 16.86 -28.556 17.042 -28.318 17.209 -28.074 C 17.249 -28.016 17.286 -27.957 17.324 -27.898 L 17.348 -27.862 C 17.479 -27.659 17.6 -27.452 17.709 -27.247 L 17.735 -27.198 C 17.764 -27.145 17.792 -27.092 17.818 -27.039 C 17.939 -26.798 18.048 -26.556 18.143 -26.318 C 18.154 -26.293 18.167 -26.264 18.178 -26.236 C 18.277 -25.978 18.367 -25.715 18.45 -25.432 C 18.463 -25.387 18.475 -25.342 18.486 -25.298 L 18.5 -25.247 C 18.553 -25.054 18.601 -24.862 18.641 -24.675 C 18.66 -24.584 18.678 -24.495 18.694 -24.407 C 18.724 -24.255 18.749 -24.104 18.771 -23.957 L 18.781 -23.89 C 18.792 -23.818 18.803 -23.747 18.812 -23.679 C 18.826 -23.558 18.838 -23.442 18.848 -23.327 C 18.875 -23.04 18.891 -22.797 18.898 -22.585 L 18.899 -22.553 C 18.904 -22.389 18.906 -22.239 18.905 -22.101 C 18.9 -21.436 18.845 -21 18.842 -20.981 C 18.839 -20.958 18.838 -20.944 18.838 -20.932 C 18.843 -17.289 18.383 -14.242 16.079 -10.302 C 15.89 -9.976 15.682 -9.637 15.444 -9.265 L 15.415 -9.218 L 15.367 -9.143 C 15.117 -8.754 14.871 -8.387 14.616 -8.022 C 12.447 -4.831 4.664 1.524 0 0" style="fill: rgb(113, 126, 134); fill-opacity: 1;"/>
      </g>
    </g>
    <g style="clip-path: url(#clippath38);">
      <g transform="translate(232.9629 74.8711)">
        <path d="M 0 0 C -0.619 -0.202 -1.16 -0.581 -1.606 -1.128 C -4.507 -4.683 -1.866 -8.894 0.929 -13.352 C 1.736 -14.641 2.563 -15.962 3.217 -17.232 C 4.064 -18.884 4.636 -20.856 5.187 -22.765 C 6.056 -25.773 6.954 -28.883 8.763 -29.794 C 9.787 -30.311 11.17 -30.193 13.018 -29.336 C 13.085 -29.305 13.153 -29.27 13.221 -29.233 L 13.301 -29.191 C 13.549 -29.065 13.763 -28.944 13.961 -28.82 C 14.049 -28.765 14.141 -28.705 14.229 -28.646 C 14.434 -28.504 14.635 -28.351 14.824 -28.19 L 14.883 -28.144 C 14.927 -28.108 14.964 -28.078 15.001 -28.046 C 15.232 -27.838 15.453 -27.616 15.646 -27.396 L 15.688 -27.345 C 15.869 -27.13 16.031 -26.917 16.181 -26.699 L 16.285 -26.54 C 16.421 -26.327 16.53 -26.142 16.628 -25.958 L 16.651 -25.915 C 16.682 -25.857 16.705 -25.814 16.727 -25.771 C 16.836 -25.554 16.934 -25.335 17.02 -25.121 C 17.026 -25.103 17.034 -25.085 17.043 -25.067 C 17.143 -24.809 17.224 -24.569 17.299 -24.314 L 17.321 -24.232 C 17.322 -24.228 17.343 -24.15 17.344 -24.146 C 17.392 -23.969 17.437 -23.793 17.474 -23.62 L 17.521 -23.38 C 17.55 -23.233 17.572 -23.096 17.593 -22.961 L 17.631 -22.701 C 17.645 -22.595 17.654 -22.488 17.664 -22.382 C 17.689 -22.113 17.704 -21.888 17.711 -21.691 C 17.717 -21.511 17.719 -21.371 17.718 -21.242 C 17.713 -20.635 17.663 -20.246 17.662 -20.242 C 17.652 -20.172 17.651 -20.127 17.65 -20.088 C 17.654 -16.579 17.215 -13.661 15.016 -9.896 C 14.831 -9.58 14.629 -9.25 14.398 -8.891 L 14.322 -8.77 C 14.08 -8.392 13.841 -8.035 13.593 -7.681 C 11.339 -4.365 3.889 1.271 0.001 0.001 Z M 12.523 -31.481 C 10.711 -32.074 9.214 -32.052 7.946 -31.413 C 5.432 -30.146 4.422 -26.649 3.445 -23.269 C 2.918 -21.443 2.372 -19.557 1.604 -18.061 C 0.985 -16.859 0.18 -15.571 -0.602 -14.325 C -3.479 -9.734 -6.734 -4.544 -3.011 0.02 C -2.341 0.839 -1.518 1.412 -0.563 1.724 C 4.729 3.454 12.907 -3.447 15.085 -6.65 C 15.34 -7.014 15.592 -7.391 15.849 -7.79 L 15.934 -7.925 C 16.172 -8.298 16.386 -8.647 16.581 -8.983 C 18.979 -13.084 19.465 -16.255 19.463 -20.029 C 19.479 -20.155 19.526 -20.6 19.53 -21.23 C 19.531 -21.383 19.53 -21.543 19.524 -21.719 C 19.515 -21.981 19.498 -22.241 19.47 -22.549 C 19.458 -22.673 19.445 -22.798 19.43 -22.927 C 19.419 -23.007 19.408 -23.085 19.396 -23.164 L 19.385 -23.234 C 19.361 -23.389 19.335 -23.552 19.303 -23.717 C 19.284 -23.816 19.266 -23.908 19.246 -24.002 C 19.201 -24.207 19.15 -24.414 19.093 -24.623 L 18.196 -24.468 L 19.072 -24.703 L 19.037 -24.829 C 18.95 -25.128 18.853 -25.415 18.742 -25.7 C 18.726 -25.743 18.71 -25.779 18.694 -25.813 C 18.593 -26.067 18.477 -26.326 18.348 -26.583 C 18.317 -26.645 18.284 -26.707 18.25 -26.77 L 18.231 -26.806 C 18.107 -27.037 17.974 -27.266 17.829 -27.49 L 17.677 -27.724 C 17.491 -27.993 17.289 -28.259 17.092 -28.49 C 17.082 -28.504 17.048 -28.547 17.011 -28.589 C 16.771 -28.864 16.497 -29.14 16.2 -29.405 C 16.134 -29.463 16.076 -29.511 16.017 -29.559 L 15.979 -29.589 C 15.759 -29.775 15.511 -29.964 15.256 -30.14 C 15.15 -30.212 15.039 -30.284 14.928 -30.354 C 14.682 -30.509 14.422 -30.655 14.132 -30.803 L 14.061 -30.841 C 13.973 -30.887 13.881 -30.934 13.784 -30.979 C 13.342 -31.186 12.931 -31.349 12.523 -31.481" style="fill: rgb(13, 13, 13); fill-opacity: 1;"/>
      </g>
    </g>
    <g style="clip-path: url(#clippath38);">
      <g transform="translate(183.7539 64.375)">
        <path d="M 0 0 C 1.806 0.591 3.884 0.505 6.01 -0.246 C 10.119 -1.699 19.953 -11.325 22.997 -14.738 C 24.021 -15.886 25.938 -18.976 25.338 -21.206 C 25.071 -22.198 24.336 -22.896 23.154 -23.283 C 22.661 -23.444 22.084 -23.553 21.438 -23.604 C 13.698 -24.228 -0.151 -16.4 -3.344 -10.823 C -4.692 -8.469 -4.986 -6.006 -4.171 -3.889 C -3.463 -2.052 -1.942 -0.635 0 0" style="fill: rgb(113, 126, 134); fill-opacity: 1;"/>
      </g>
    </g>
    <g style="clip-path: url(#clippath38);">
      <g transform="translate(184.0615 63.4346)">
        <path d="M 0 0 C -1.659 -0.542 -2.955 -1.746 -3.556 -3.304 C -4.262 -5.138 -3.991 -7.299 -2.794 -9.391 C 0.206 -14.631 13.756 -22.266 21.052 -21.678 C 22.78 -21.538 23.811 -20.989 24.075 -20.008 C 24.539 -18.287 22.921 -15.543 21.951 -14.457 C 18.696 -10.807 9.131 -1.566 5.372 -0.238 C 3.454 0.44 1.597 0.522 0 0 M 23.154 -23.283 C 22.588 -23.468 21.934 -23.591 21.21 -23.649 C 13.013 -24.31 -1.118 -16.3 -4.51 -10.374 C -6.01 -7.756 -6.326 -4.992 -5.401 -2.593 C -4.586 -0.478 -2.842 1.153 -0.615 1.881 C 1.399 2.539 3.698 2.452 6.031 1.627 C 10.663 -0.011 21.052 -10.476 23.427 -13.141 C 24.333 -14.155 26.748 -17.691 25.985 -20.522 C 25.738 -21.44 25.046 -22.664 23.154 -23.283" style="fill: rgb(13, 13, 13); fill-opacity: 1;"/>
      </g>
    </g>
  </g>
</svg>