<?xml version="1.0" encoding="utf-8"?>
<svg version="1.1" x="0px" y="0px" viewBox="0 0 595 842" style="enable-background:new 0 0 595 842;" xmlns="http://www.w3.org/2000/svg">
  <style type="text/css">
	.st0{display:none;}
	.st1{display:inline;}
	.st2{fill:#005683;}
	.st3{fill:#00709C;}
	.st4{display:inline;fill:#FFFFFF;}
	.st5{display:inline;fill:#FFD200;}
	.st6{display:inline;fill:#FF8800;}
	.st7{stroke:#000000;stroke-width:11.25;stroke-linecap:round;stroke-linejoin:round;stroke-miterlimit:10;}
	.st8{clip-path:url(#SVGID_2_);fill:#00709C;}
	.st9{clip-path:url(#SVGID_2_);fill:#FFFFFF;}
	.st10{fill:#FF8800;stroke:#000000;stroke-width:3.7249999;stroke-linecap:round;stroke-linejoin:round;stroke-miterlimit:10;}
	.st11{fill:#FFD200;stroke:#000000;stroke-width:3.7249999;stroke-linecap:round;stroke-linejoin:round;stroke-miterlimit:10;}
</style>
  <path class="st1" d="M 397.121 318.15 C 395.827 317.827 393.718 317.673 385.233 317.673 C 382.493 317.673 379.379 317.688 376.068 317.705 C 372.33 317.723 368.34 317.743 364.357 317.743 C 357.955 317.743 348.989 317.697 342.609 317.331 C 332.39 309.902 320.618 305.937 307.592 305.543 C 279.365 304.678 254.372 316.882 240.838 337.86 C 236.264 342.21 227.659 347.046 225.333 347.562 C 221.431 348.429 218.905 351.846 219.327 355.685 C 219.631 358.452 221.598 361.561 225.987 363.006 C 225.48 363.504 224.998 364.027 224.548 364.569 C 221.574 368.152 220.329 372.227 221.045 376.043 C 221.19 376.809 221.389 377.541 221.645 378.236 C 215.209 389.191 211.824 401.624 211.824 414.409 C 211.824 417.638 212.041 420.851 212.473 424.033 C 211.461 423.856 210.442 423.766 209.426 423.766 C 204.53 423.766 199.993 425.889 196.979 429.59 C 193.651 433.679 192.484 439.148 193.693 444.991 C 196.156 456.893 214.185 476.956 228.56 480.407 C 229.976 480.746 231.328 480.918 232.579 480.918 C 236.424 480.918 239.602 479.297 241.526 476.353 C 242.137 475.417 242.578 474.425 242.885 473.409 C 252.695 480.176 264.036 484.365 276.051 485.583 C 278.654 494.076 285.643 495.492 290.004 495.492 C 296.578 495.492 302.258 492.818 306.309 487.891 C 306.674 487.897 307.041 487.901 307.409 487.901 C 310.188 487.901 313.643 487.71 317.594 487.1 C 304.945 501.295 286.673 509.462 273.217 509.465 C 273.216 509.465 273.216 509.465 273.214 509.465 C 267.543 509.465 259.925 508.019 255.831 501.133 C 250.414 492.023 241.733 486.363 233.175 486.363 C 224.185 486.363 217.939 492.709 217.634 502.154 C 217.469 507.267 220.148 512.827 225.383 518.233 C 234.187 527.326 251.263 536.502 269.563 536.502 C 273.606 536.502 277.569 536.049 281.34 535.156 C 313.769 527.476 342.826 501.511 351.278 472.953 C 382.232 449.306 379.779 384.295 369.521 355.308 C 368.809 353.296 368.04 351.326 367.215 349.402 C 368.464 349.546 369.697 349.619 370.912 349.619 C 373.747 349.619 376.51 349.221 379.124 348.437 C 395.212 343.611 402.482 331.667 402.33 325.114 C 402.25 321.655 400.205 318.921 397.121 318.15 Z" style="">
    <title>outline 1</title>
  </path>
  <path id="silhouette" class="st7" d="M 395.055 323.474 C 393.738 323.341 390.535 323.276 385.262 323.276 C 382.522 323.276 379.406 323.291 376.091 323.308 C 372.328 323.327 368.308 323.347 364.295 323.347 C 357.156 323.347 347.054 323.289 340.484 322.809 C 340.477 322.803 340.469 322.797 340.461 322.791 C 339.93 322.387 339.393 321.987 338.845 321.597 C 338.108 321.065 337.359 320.541 336.585 320.038 C 336.583 320.036 336.582 320.035 336.58 320.034 C 336.578 320.033 336.576 320.031 336.574 320.03 C 327.869 314.456 318.062 311.466 307.424 311.144 L 307.424 311.144 C 307.424 311.144 307.424 311.144 307.423 311.144 C 306.549 311.117 305.664 311.104 304.792 311.104 C 279.455 311.103 257.183 322.435 245.214 341.417 C 244.957 341.825 244.716 342.23 244.483 342.633 C 244.484 342.632 244.484 342.632 244.484 342.632 L 239.07 346.397 C 234.431 349.624 229.049 352.476 226.552 353.031 C 226.155 353.119 225.817 353.278 225.544 353.506 C 224.989 353.965 224.745 354.702 224.914 355.392 C 224.992 355.709 225.152 356 225.377 356.236 C 225.646 356.535 225.909 356.761 226.224 356.974 C 228.645 358.607 233.542 358.653 239.933 356.946 L 241.636 356.492 L 241.636 356.491 C 241.66 356.577 241.678 356.665 241.704 356.75 C 242.193 358.359 242.985 359.664 243.876 360.683 C 242.701 361.516 241.55 362.38 240.432 363.285 C 240.235 363.17 240.03 363.069 239.819 362.985 C 239.409 362.822 238.933 362.74 238.4 362.74 C 235.519 362.74 231.418 365.064 228.86 368.146 C 227.764 369.468 226.009 372.115 226.552 375.009 C 226.719 375.9 227.009 376.679 227.393 377.355 C 226.972 377.965 226.567 378.586 226.165 379.21 C 226.011 379.449 225.856 379.686 225.705 379.927 C 225.208 380.722 224.731 381.529 224.267 382.346 C 224.15 382.553 224.027 382.756 223.911 382.965 C 223.371 383.939 222.854 384.927 222.362 385.931 C 222.337 385.982 222.309 386.031 222.284 386.083 C 221.751 387.177 221.245 388.288 220.771 389.415 C 220.764 389.433 220.757 389.451 220.75 389.469 C 220.308 390.523 219.895 391.591 219.506 392.671 C 219.396 392.979 219.297 393.292 219.191 393.601 C 218.917 394.399 218.652 395.2 218.408 396.01 C 218.287 396.409 218.178 396.813 218.065 397.215 C 217.858 397.95 217.661 398.689 217.479 399.435 C 217.371 399.876 217.27 400.32 217.171 400.765 C 217.011 401.488 216.863 402.215 216.727 402.947 C 216.641 403.407 216.555 403.867 216.479 404.33 C 216.356 405.073 216.252 405.822 216.154 406.573 C 216.095 407.025 216.031 407.475 215.981 407.929 C 215.892 408.747 215.827 409.571 215.767 410.397 C 215.739 410.789 215.699 411.178 215.677 411.572 C 215.611 412.793 215.571 414.02 215.571 415.257 C 215.571 416.388 215.601 417.512 215.657 418.629 C 215.686 419.22 215.743 419.804 215.788 420.392 C 215.828 420.906 215.855 421.425 215.906 421.936 C 215.985 422.732 216.093 423.52 216.201 424.307 C 216.24 424.597 216.268 424.89 216.311 425.178 C 216.449 426.097 216.614 427.007 216.789 427.913 C 216.817 428.061 216.839 428.211 216.868 428.358 C 217.067 429.355 217.293 430.342 217.535 431.323 C 217.548 431.374 217.558 431.426 217.571 431.477 C 217.641 431.758 217.712 432.038 217.785 432.318 C 215.114 430.39 212.237 429.362 209.425 429.362 C 206.221 429.362 203.266 430.733 201.318 433.124 C 199.072 435.881 198.31 439.693 199.172 443.857 C 201.212 453.721 218.032 472.125 229.866 474.966 C 230.853 475.203 231.766 475.323 232.579 475.323 C 234.527 475.323 235.962 474.64 236.843 473.292 C 238.388 470.929 237.904 467.047 237.158 464.403 C 248.887 475.216 264.478 481.887 281.601 482.098 C 281.956 484.141 282.616 485.898 283.809 487.133 C 285.199 488.569 287.225 489.267 290.004 489.267 C 290.666 489.267 291.348 489.222 292.089 489.13 C 292.244 489.11 292.393 489.085 292.543 489.059 L 292.686 489.034 C 293.186 488.952 293.632 488.859 294.052 488.749 C 294.247 488.698 294.443 488.645 294.633 488.587 C 295.083 488.449 295.529 488.287 295.962 488.105 L 296.048 488.071 C 296.147 488.033 296.245 487.994 296.338 487.951 C 296.893 487.699 297.416 487.421 297.895 487.124 C 297.951 487.09 298.004 487.053 298.056 487.016 C 298.45 486.765 298.862 486.471 299.257 486.156 C 299.351 486.081 299.442 486.004 299.532 485.927 L 299.588 485.879 C 299.902 485.613 300.204 485.336 300.485 485.056 L 300.553 484.988 C 300.626 484.916 300.699 484.843 300.769 484.769 C 301.087 484.435 301.387 484.093 301.661 483.751 C 301.694 483.714 301.728 483.674 301.76 483.633 C 302.055 483.259 302.334 482.871 302.615 482.446 C 302.652 482.39 302.686 482.335 302.72 482.279 L 302.72 482.28 L 304.606 482.292 L 307.207 482.299 L 307.373 482.299 C 313.474 482.299 321.705 481.345 330.92 477.788 L 330.601 478.371 C 319.388 498.888 295.048 514.66 273.99 515.06 C 263.493 515.25 255.359 511.303 251.015 503.996 C 245.255 494.31 236.245 490.792 230.318 492.313 C 225.986 493.43 223.404 497.082 223.235 502.335 C 223.089 506.863 226.683 512.468 233.096 517.711 C 241.844 524.861 255.626 530.886 269.658 530.886 C 273.129 530.886 276.619 530.517 280.049 529.704 C 309.164 522.81 335.826 500.105 344.886 474.493 L 346.461 469.529 C 355.824 463.058 367.534 448.452 370.291 415.604 C 371.995 395.314 369.619 372.38 364.239 357.178 C 362.67 352.742 360.803 348.521 358.671 344.581 C 357.96 343.267 357.219 341.985 356.451 340.737 L 356.163 340.27 C 362.319 343.191 367.294 344.016 370.907 344.017 C 373.197 344.017 375.419 343.699 377.514 343.071 C 387.19 340.167 393.172 334.092 395.545 329.374 C 396.576 327.32 396.73 325.957 396.73 325.327 C 396.73 324.372 396.006 323.571 395.055 323.474 Z" style="">
    <title>outline 2</title>
  </path>
  <defs>
    <path id="SVGID_1_" d="M282.4335938,482.1191406c-36.8681641,0-66.8623047-29.9941406-66.8623047-66.8618164 c0-36.8681641,29.9941406-66.8623047,66.8623047-66.8623047s66.8623047,29.9941406,66.8623047,66.8623047 C349.2958984,452.125,319.3017578,482.1191406,282.4335938,482.1191406z"/>
  </defs>
  <path d="M 282.434 482.119 C 245.565 482.119 215.571 452.125 215.571 415.257 C 215.571 378.389 245.565 348.395 282.434 348.395 C 319.302 348.395 349.296 378.389 349.296 415.257 C 349.296 452.125 319.302 482.119 282.434 482.119 Z" style="overflow: visible; fill: rgb(0, 86, 131);">
    <title>ball</title>
  </path>
  <clipPath id="SVGID_2_">
    <path d="M 282.434 482.119 C 245.565 482.119 215.571 452.125 215.571 415.257 C 215.571 378.389 245.565 348.395 282.434 348.395 C 319.302 348.395 349.296 378.389 349.296 415.257 C 349.296 452.125 319.302 482.119 282.434 482.119 Z" style="overflow: visible;"/>
  </clipPath>
  <path class="st8" d="M 261.25 358.861 C 253.795 358.861 246.721 360.478 240.339 363.358 C 225.241 375.628 215.571 394.331 215.571 415.257 C 215.571 424.195 217.347 432.723 220.544 440.523 C 229.841 452.874 244.612 460.861 261.25 460.861 C 289.385 460.861 312.193 438.028 312.193 409.861 C 312.193 381.695 289.385 358.861 261.25 358.861 Z" style="">
    <title>belly highlight</title>
  </path>
  <path class="st9" d="M 256.787 449.002 C 253.962 449.186 251.663 449.023 248.854 448.44 C 248.007 439.996 247.461 429.447 251.716 411.059 C 259.444 431.075 267.955 445.751 268.016 445.832 C 266.569 446.522 262.166 448.623 256.787 449.002 M 243.828 446.87 C 221.717 436.821 217.659 413.002 225.078 394.666 C 225.36 412.811 230.441 426.96 243.828 446.87 M 273.757 442.391 C 277.264 427.274 283.095 412.824 286.525 397.685 C 287.187 394.759 287.761 390.205 286.729 385.127 C 296.948 401.091 295.774 425.885 273.757 442.391 M 228.187 388.583 C 238.168 373.221 257.255 360.725 278.206 376.069 C 278.066 376.063 264.775 376.673 274.435 390.962 C 279.655 398.684 279.988 404.878 275.858 417.476 C 274.367 423.687 273.917 425.562 272.586 431.957 C 266.211 416.724 261.01 403.753 256.902 387.168 C 260.513 386.638 264.605 386.038 262.503 383.713 C 262.238 383.42 243.21 385.308 243.029 385.339 C 241.569 385.588 241.312 387.307 241.31 387.324 C 241.158 388.681 241.405 388.667 245.526 388.419 C 246.613 394.274 247.108 396.948 249.796 405.494 C 247.855 413.561 245.847 421.901 245.572 434.819 C 236.903 417.562 233.433 405.577 232.771 390.594 C 234.001 389.845 235.645 390.14 236.733 389.025 C 237.474 388.266 237.835 386.552 236.91 386.352 C 233.632 385.645 231.129 387.968 228.187 388.583 M 258.312 365.877 C 225.512 368.584 204.213 418.011 233.222 443.877 C 262.623 470.091 298.948 436.221 297.693 404.793 C 296.719 380.429 276.544 365.001 258.312 365.877" style="">
    <title>W</title>
  </path>
  <path d="M 282.434 482.119 C 245.565 482.119 215.571 452.125 215.571 415.257 C 215.571 378.389 245.565 348.395 282.434 348.395 C 319.302 348.395 349.296 378.389 349.296 415.257 C 349.296 452.125 319.302 482.119 282.434 482.119 Z" style="overflow: visible; fill: none; stroke: rgb(0, 0, 0); stroke-width: 3.725; stroke-miterlimit: 10;">
    <title>belly outline</title>
  </path>
  <path class="st10" d="M 346.407 469.568 C 341.074 473.239 335.858 475.881 330.92 477.788 L 330.601 478.371 C 319.388 498.888 295.048 514.66 273.99 515.06 C 263.493 515.25 255.359 511.303 251.015 503.996 C 245.255 494.31 236.245 490.792 230.318 492.313 C 225.986 493.43 223.404 497.082 223.235 502.335 C 223.089 506.863 226.683 512.468 233.096 517.711 C 241.844 524.861 255.626 530.886 269.658 530.886 C 273.129 530.886 276.619 530.517 280.049 529.704 C 309.164 522.81 335.826 500.105 344.886 474.493 L 346.461 469.529 C 346.443 469.542 346.425 469.555 346.407 469.568 Z" style="">
    <title>tail</title>
  </path>
  <path class="st10" d="M 244.484 342.632 L 239.07 346.397 C 234.431 349.624 229.049 352.476 226.552 353.031 C 226.155 353.119 225.817 353.278 225.544 353.506 C 224.989 353.965 224.745 354.702 224.914 355.392 C 224.992 355.709 225.152 356 225.377 356.236 C 225.646 356.535 225.909 356.761 226.224 356.974 C 228.645 358.607 233.542 358.653 239.933 356.946 L 241.636 356.492 C 240.536 352.539 241.516 347.776 244.484 342.632 Z">
    <title>ear 1</title>
  </path>
  <path class="st11" d="M 307.55 353.308 C 313.413 353.367 319.095 354.409 324.012 356.349 C 318.95 354.352 313.08 353.297 307.034 353.297 L 307.034 353.297 C 295.734 353.297 284.872 356.918 277.98 362.984 C 272.639 367.684 272.357 371.302 273.061 373.51 C 274.074 376.691 277.795 379.07 282.539 379.568 C 282.967 379.613 283.431 379.635 283.919 379.635 C 287.05 379.635 291.108 378.735 295.404 377.781 C 300.648 376.617 306.592 375.297 312.122 375.297 C 314.189 375.297 316.044 375.474 317.792 375.836 C 329.354 378.228 337.203 385.325 349.083 396.069 L 350.559 397.402 L 349.083 396.069 C 347.804 394.911 346.578 393.805 345.382 392.734 C 347.909 399.776 349.296 407.357 349.296 415.257 C 349.296 421.786 348.338 428.092 346.586 434.061 C 348.782 435.132 350.584 436.483 351.798 438.052 C 348.667 434.003 341.652 431.386 333.926 431.386 C 332.811 431.386 331.689 431.442 330.592 431.552 C 324.33 432.187 312.855 435.183 306.347 448.114 L 305.215 450.363 L 305.215 450.363 C 305.356 450.762 305.48 451.144 305.578 451.497 C 305.795 452.241 305.996 452.982 306.192 453.762 L 306.229 453.913 L 306.251 454.006 C 306.436 454.752 306.59 455.427 306.724 456.07 C 308.342 463.855 307.487 469.157 305.58 475.193 C 305.573 475.215 305.568 475.239 305.561 475.28 C 305.555 475.311 305.418 476.063 305.078 477.169 C 305.007 477.399 304.927 477.647 304.833 477.915 L 304.814 477.969 C 304.692 478.317 304.539 478.71 304.347 479.172 C 304.27 479.358 304.192 479.543 304.105 479.735 C 304.056 479.844 304.001 479.956 303.947 480.068 L 303.895 480.175 C 303.783 480.408 303.665 480.643 303.539 480.88 C 303.466 481.017 303.392 481.154 303.313 481.294 C 303.15 481.584 302.975 481.876 302.79 482.167 L 302.742 482.244 C 302.735 482.255 302.727 482.267 302.72 482.279 L 302.72 482.28 L 304.606 482.292 L 307.207 482.299 L 307.373 482.299 C 316.744 482.299 331.123 480.091 346.407 469.568 C 355.778 463.115 367.529 448.515 370.291 415.604 C 371.995 395.314 369.619 372.38 364.239 357.178 C 362.67 352.742 360.803 348.521 358.671 344.581 C 357.96 343.267 357.219 341.985 356.451 340.737 L 356.163 340.27 L 356.158 340.285 C 351.7 333.141 346.637 327.494 340.484 322.809 L 340.484 322.809 C 340.477 322.803 340.469 322.797 340.461 322.791 C 339.93 322.387 339.393 321.987 338.845 321.597 C 338.108 321.065 337.359 320.541 336.585 320.038 C 336.583 320.036 336.582 320.035 336.58 320.034 C 336.578 320.033 336.576 320.031 336.574 320.03 C 327.869 314.456 318.063 311.466 307.424 311.144 L 307.424 311.144 C 307.424 311.144 307.424 311.144 307.423 311.144 C 306.549 311.117 305.664 311.104 304.792 311.104 C 279.455 311.103 257.183 322.435 245.214 341.417 C 241.608 347.139 240.394 352.441 241.704 356.75 C 242.721 360.099 245.041 362.163 246.872 362.978 C 247.318 363.176 247.85 363.273 248.501 363.273 C 253.01 363.273 266.497 358.169 270.922 350.123 C 275.308 352.817 280.136 354.127 285.688 354.127 C 292.008 354.127 298.274 352.401 304.104 350.536 C 303.338 350.781 302.562 351.023 301.781 351.26" style="">
    <title>body</title>
  </path>
  <path class="st10" d="M 338.732 322.712 C 338.471 322.712 338.242 322.722 338.057 322.737 C 337.413 322.791 336.843 323.175 336.55 323.751 C 336.258 324.327 336.285 325.014 336.622 325.565 C 337.337 326.735 338.826 328.318 340.604 329.8 L 341.072 330.197 C 354.467 341.617 364.69 344.016 370.907 344.017 C 373.197 344.017 375.419 343.699 377.514 343.071 C 387.19 340.167 393.172 334.092 395.545 329.374 C 396.576 327.32 396.73 325.957 396.73 325.327 C 396.73 324.372 396.006 323.571 395.055 323.474 C 393.738 323.341 390.535 323.276 385.262 323.276 C 382.522 323.276 379.405 323.291 376.091 323.308 C 372.328 323.327 368.308 323.347 364.295 323.347 C 356.897 323.347 346.306 323.286 339.772 322.756 C 339.412 322.727 339.063 322.712 338.732 322.712 L 338.732 322.712 Z">
    <title>ear 2</title>
  </path>
  <path class="st11" d="M 238.4 362.74 C 235.519 362.74 231.418 365.064 228.86 368.146 C 227.764 369.468 226.009 372.115 226.552 375.009 C 227.173 378.315 229.365 380.212 232.568 380.212 C 235.146 380.212 238.011 378.886 240.232 376.666 C 242.772 374.125 243.902 370.725 243.255 367.572 C 242.805 365.38 241.521 363.666 239.819 362.985 C 239.409 362.822 238.933 362.74 238.4 362.74 L 238.4 362.74 Z">
    <title>hand</title>
  </path>
  <path d="M 267.608 339.341 C 264.64 341.567 265.535 344.32 268.852 344.734 C 272.17 345.148 272.429 345.368 275.488 343.074 C 278.806 340.586 279.221 336.437 275.488 336.853 C 271.756 337.268 269.267 338.097 267.608 339.341 Z">
    <title>nose</title>
  </path>
  <circle cx="255.165" cy="341.001" r="3.733">
    <title>eye 1</title>
  </circle>
  <circle cx="298.299" cy="330.633" r="3.733">
    <title>eye 2</title>
  </circle>
  <path class="st11" d="M 286.443 430.27 C 285.053 430.27 283.717 430.69 282.471 431.52 C 275.072 436.454 277.315 445.821 279.484 454.88 C 280.089 457.408 280.714 460.022 281.084 462.424 C 281.552 465.469 281.436 468.973 281.324 472.362 C 281.13 478.169 280.931 484.157 283.809 487.133 C 285.199 488.569 287.225 489.267 290.004 489.267 C 290.666 489.267 291.348 489.222 292.089 489.13 C 292.244 489.11 292.393 489.085 292.543 489.059 L 292.686 489.034 C 293.186 488.952 293.632 488.859 294.052 488.749 C 294.247 488.698 294.443 488.645 294.633 488.587 C 295.083 488.449 295.529 488.287 295.962 488.105 L 296.048 488.071 C 296.147 488.033 296.245 487.994 296.338 487.951 C 296.893 487.699 297.416 487.421 297.895 487.124 C 297.95 487.09 298.004 487.053 298.056 487.016 C 298.45 486.765 298.862 486.471 299.257 486.156 C 299.351 486.081 299.442 486.004 299.532 485.927 L 299.588 485.879 C 299.902 485.613 300.204 485.336 300.485 485.056 L 300.553 484.988 C 300.626 484.916 300.699 484.843 300.769 484.769 C 301.087 484.435 301.387 484.093 301.661 483.751 C 301.694 483.714 301.728 483.674 301.76 483.633 C 302.054 483.259 302.334 482.871 302.614 482.446 C 302.659 482.378 302.701 482.311 302.742 482.244 L 302.79 482.167 C 302.975 481.876 303.15 481.584 303.313 481.294 C 303.392 481.155 303.466 481.017 303.539 480.88 C 303.665 480.643 303.783 480.408 303.895 480.175 L 303.947 480.068 C 304.001 479.956 304.056 479.844 304.105 479.735 C 304.192 479.543 304.27 479.358 304.347 479.172 C 304.539 478.71 304.692 478.317 304.814 477.969 L 304.833 477.915 C 304.927 477.647 305.007 477.399 305.078 477.169 C 305.418 476.063 305.555 475.311 305.561 475.28 C 305.568 475.239 305.573 475.215 305.58 475.193 C 307.487 469.157 308.342 463.855 306.724 456.07 C 306.59 455.427 306.436 454.752 306.251 454.006 L 306.229 453.913 L 306.191 453.762 C 305.996 452.982 305.795 452.241 305.578 451.498 C 303.781 445.029 294.68 430.27 286.443 430.27 L 286.443 430.27 Z" style="">
    <title>foot 2</title>
  </path>
  <path class="st11" d="M 209.425 429.362 C 212.402 429.362 215.456 430.501 218.257 432.656 C 223.671 436.821 233.633 455.95 236.505 462.518 C 237.471 464.725 238.824 470.262 236.843 473.292 C 235.962 474.64 234.527 475.323 232.579 475.323 C 231.766 475.323 230.853 475.203 229.866 474.966 C 218.032 472.125 201.212 453.721 199.172 443.857 C 198.31 439.693 199.072 435.881 201.318 433.124 C 203.266 430.733 206.221 429.362 209.425 429.362" style="">
    <title>foot 1</title>
  </path>
</svg>